<svg width="12" height="16" viewBox="0 0 12 16" fill="none" xmlns="http://www.w3.org/2000/svg">
<path fill-rule="evenodd" clip-rule="evenodd" d="M5.80949 0.72562C5.93596 0.707345 6.0644 0.707345 6.19087 0.72562C6.33662 0.746682 6.47224 0.797918 6.57993 0.838601L6.60879 0.849477L10.2704 2.22249C10.6823 2.37626 11.044 2.5113 11.3225 2.75678C11.5662 2.97152 11.7539 3.24239 11.8694 3.54595C12.0015 3.89296 12.0009 4.27904 12.0003 4.71866L12.0002 7.99991C12.0002 9.88433 10.9753 11.4554 9.86747 12.6095C8.7522 13.7714 7.47618 14.592 6.80144 14.9857L6.77412 15.0017C6.65099 15.074 6.49117 15.1678 6.27975 15.2132C6.10678 15.2503 5.89357 15.2503 5.7206 15.2132C5.50919 15.1678 5.34937 15.074 5.22624 15.0017L5.19891 14.9857C4.52417 14.592 3.24815 13.7714 2.13288 12.6095C1.02504 11.4554 0.000176554 9.88433 0.000176554 7.99991L8.7147e-05 4.71867C-0.00054951 4.27904 -0.00110869 3.89296 0.130937 3.54595C0.246451 3.24239 0.434159 2.97152 0.677835 2.75678C0.956383 2.5113 1.31808 2.37626 1.72994 2.22249L5.39156 0.849477L5.42042 0.838602C5.52811 0.797918 5.66373 0.746682 5.80949 0.72562ZM8.8049 6.4714C9.06525 6.21105 9.06525 5.78894 8.8049 5.5286C8.54455 5.26825 8.12244 5.26825 7.86209 5.5286L5.3335 8.05719L4.47157 7.19526C4.21122 6.93491 3.78911 6.93491 3.52876 7.19526C3.26841 7.45561 3.26841 7.87772 3.52876 8.13807L4.86209 9.4714C5.12244 9.73175 5.54455 9.73175 5.8049 9.4714L8.8049 6.4714Z" fill="white"/>
<path fill-rule="evenodd" clip-rule="evenodd" d="M5.80949 0.72562C5.93596 0.707345 6.0644 0.707345 6.19087 0.72562C6.33662 0.746682 6.47224 0.797918 6.57993 0.838601L6.60879 0.849477L10.2704 2.22249C10.6823 2.37626 11.044 2.5113 11.3225 2.75678C11.5662 2.97152 11.7539 3.24239 11.8694 3.54595C12.0015 3.89296 12.0009 4.27904 12.0003 4.71866L12.0002 7.99991C12.0002 9.88433 10.9753 11.4554 9.86747 12.6095C8.7522 13.7714 7.47618 14.592 6.80144 14.9857L6.77412 15.0017C6.65099 15.074 6.49117 15.1678 6.27975 15.2132C6.10678 15.2503 5.89357 15.2503 5.7206 15.2132C5.50919 15.1678 5.34937 15.074 5.22624 15.0017L5.19891 14.9857C4.52417 14.592 3.24815 13.7714 2.13288 12.6095C1.02504 11.4554 0.000176554 9.88433 0.000176554 7.99991L8.7147e-05 4.71867C-0.00054951 4.27904 -0.00110869 3.89296 0.130937 3.54595C0.246451 3.24239 0.434159 2.97152 0.677835 2.75678C0.956383 2.5113 1.31808 2.37626 1.72994 2.22249L5.39156 0.849477L5.42042 0.838602C5.52811 0.797918 5.66373 0.746682 5.80949 0.72562ZM8.8049 6.4714C9.06525 6.21105 9.06525 5.78894 8.8049 5.5286C8.54455 5.26825 8.12244 5.26825 7.86209 5.5286L5.3335 8.05719L4.47157 7.19526C4.21122 6.93491 3.78911 6.93491 3.52876 7.19526C3.26841 7.45561 3.26841 7.87772 3.52876 8.13807L4.86209 9.4714C5.12244 9.73175 5.54455 9.73175 5.8049 9.4714L8.8049 6.4714Z" fill="black" fill-opacity="0.3"/>
</svg>
