<svg width="14" height="15" viewBox="0 0 14 15" fill="none" xmlns="http://www.w3.org/2000/svg">
<path d="M13 13.3569L10.6667 11.0236M12.3333 7.0236C12.3333 10.1532 9.79628 12.6903 6.66667 12.6903C3.53705 12.6903 1 10.1532 1 7.0236C1 3.89399 3.53705 1.35693 6.66667 1.35693C9.79628 1.35693 12.3333 3.89399 12.3333 7.0236Z" stroke="white" stroke-width="2" stroke-linecap="round" stroke-linejoin="round"/>
<path d="M13 13.3569L10.6667 11.0236M12.3333 7.0236C12.3333 10.1532 9.79628 12.6903 6.66667 12.6903C3.53705 12.6903 1 10.1532 1 7.0236C1 3.89399 3.53705 1.35693 6.66667 1.35693C9.79628 1.35693 12.3333 3.89399 12.3333 7.0236Z" stroke="black" stroke-opacity="0.3" stroke-width="2" stroke-linecap="round" stroke-linejoin="round"/>
</svg>
