<svg width="14" height="15" viewBox="0 0 14 15" fill="none" xmlns="http://www.w3.org/2000/svg">
<path fill-rule="evenodd" clip-rule="evenodd" d="M9.66732 0.2146C10.0355 0.2146 10.334 0.513076 10.334 0.881266V1.54902C10.651 1.5512 10.928 1.55774 11.1685 1.5774C11.5433 1.60801 11.8877 1.67372 12.2113 1.83858C12.7131 2.09425 13.121 2.50219 13.3767 3.00396C13.5415 3.32752 13.6072 3.67198 13.6379 4.04672C13.6673 4.40751 13.6673 4.85041 13.6673 5.38705V11.0421C13.6673 11.5788 13.6673 12.0217 13.6379 12.3825C13.6072 12.7572 13.5415 13.1017 13.3767 13.4252C13.121 13.927 12.7131 14.335 12.2113 14.5906C11.8877 14.7555 11.5433 14.8212 11.1685 14.8518C10.8077 14.8813 10.3648 14.8813 9.8282 14.8813H4.1731C3.63646 14.8813 3.19356 14.8813 2.83277 14.8518C2.45804 14.8212 2.11357 14.7555 1.79001 14.5906C1.28824 14.335 0.880297 13.927 0.624635 13.4252C0.459774 13.1017 0.394064 12.7572 0.363448 12.3825C0.33397 12.0217 0.333976 11.5788 0.333985 11.0421V5.38707C0.333976 4.85042 0.33397 4.40751 0.363448 4.04672C0.394064 3.67198 0.459774 3.32752 0.624635 3.00396C0.880297 2.50219 1.28824 2.09425 1.79001 1.83858C2.11357 1.67372 2.45804 1.60801 2.83277 1.5774C3.07331 1.55774 3.35034 1.5512 3.66732 1.54902V0.881266C3.66732 0.513076 3.96579 0.2146 4.33398 0.2146C4.70217 0.2146 5.00065 0.513076 5.00065 0.881266V1.54793H9.00065V0.881266C9.00065 0.513076 9.29913 0.2146 9.66732 0.2146ZM3.66732 2.88244V3.54793C3.66732 3.91612 3.96579 4.2146 4.33398 4.2146C4.70217 4.2146 5.00065 3.91612 5.00065 3.54793V2.88127H9.00065V3.54793C9.00065 3.91612 9.29913 4.2146 9.66732 4.2146C10.0355 4.2146 10.334 3.91612 10.334 3.54793V2.88244C10.631 2.88453 10.8642 2.89031 11.06 2.9063C11.3522 2.93018 11.5017 2.97346 11.606 3.02659C11.8569 3.15442 12.0608 3.3584 12.1887 3.60928C12.2418 3.71355 12.2851 3.86301 12.3089 4.15529C12.3335 4.45535 12.334 4.84355 12.334 5.4146V5.54793H1.66732V5.4146C1.66732 4.84355 1.66784 4.45535 1.69235 4.15529C1.71623 3.86301 1.75952 3.71355 1.81264 3.60928C1.94047 3.3584 2.14445 3.15442 2.39533 3.02659C2.4996 2.97346 2.64907 2.93018 2.94134 2.9063C3.13707 2.89031 3.3703 2.88453 3.66732 2.88244Z" fill="white"/>
<path fill-rule="evenodd" clip-rule="evenodd" d="M9.66732 0.2146C10.0355 0.2146 10.334 0.513076 10.334 0.881266V1.54902C10.651 1.5512 10.928 1.55774 11.1685 1.5774C11.5433 1.60801 11.8877 1.67372 12.2113 1.83858C12.7131 2.09425 13.121 2.50219 13.3767 3.00396C13.5415 3.32752 13.6072 3.67198 13.6379 4.04672C13.6673 4.40751 13.6673 4.85041 13.6673 5.38705V11.0421C13.6673 11.5788 13.6673 12.0217 13.6379 12.3825C13.6072 12.7572 13.5415 13.1017 13.3767 13.4252C13.121 13.927 12.7131 14.335 12.2113 14.5906C11.8877 14.7555 11.5433 14.8212 11.1685 14.8518C10.8077 14.8813 10.3648 14.8813 9.8282 14.8813H4.1731C3.63646 14.8813 3.19356 14.8813 2.83277 14.8518C2.45804 14.8212 2.11357 14.7555 1.79001 14.5906C1.28824 14.335 0.880297 13.927 0.624635 13.4252C0.459774 13.1017 0.394064 12.7572 0.363448 12.3825C0.33397 12.0217 0.333976 11.5788 0.333985 11.0421V5.38707C0.333976 4.85042 0.33397 4.40751 0.363448 4.04672C0.394064 3.67198 0.459774 3.32752 0.624635 3.00396C0.880297 2.50219 1.28824 2.09425 1.79001 1.83858C2.11357 1.67372 2.45804 1.60801 2.83277 1.5774C3.07331 1.55774 3.35034 1.5512 3.66732 1.54902V0.881266C3.66732 0.513076 3.96579 0.2146 4.33398 0.2146C4.70217 0.2146 5.00065 0.513076 5.00065 0.881266V1.54793H9.00065V0.881266C9.00065 0.513076 9.29913 0.2146 9.66732 0.2146ZM3.66732 2.88244V3.54793C3.66732 3.91612 3.96579 4.2146 4.33398 4.2146C4.70217 4.2146 5.00065 3.91612 5.00065 3.54793V2.88127H9.00065V3.54793C9.00065 3.91612 9.29913 4.2146 9.66732 4.2146C10.0355 4.2146 10.334 3.91612 10.334 3.54793V2.88244C10.631 2.88453 10.8642 2.89031 11.06 2.9063C11.3522 2.93018 11.5017 2.97346 11.606 3.02659C11.8569 3.15442 12.0608 3.3584 12.1887 3.60928C12.2418 3.71355 12.2851 3.86301 12.3089 4.15529C12.3335 4.45535 12.334 4.84355 12.334 5.4146V5.54793H1.66732V5.4146C1.66732 4.84355 1.66784 4.45535 1.69235 4.15529C1.71623 3.86301 1.75952 3.71355 1.81264 3.60928C1.94047 3.3584 2.14445 3.15442 2.39533 3.02659C2.4996 2.97346 2.64907 2.93018 2.94134 2.9063C3.13707 2.89031 3.3703 2.88453 3.66732 2.88244Z" fill="black" fill-opacity="0.3"/>
</svg>
