<svg width="16" height="11" viewBox="0 0 16 11" fill="none" xmlns="http://www.w3.org/2000/svg">
<path d="M6.66563 5.53011C6.66563 4.79373 7.26258 4.19678 7.99896 4.19678C8.73534 4.19678 9.33229 4.79373 9.33229 5.53011C9.33229 6.26649 8.73534 6.86344 7.99896 6.86344C7.26258 6.86344 6.66563 6.26649 6.66563 5.53011Z" fill="#3BF062"/>
<path fill-rule="evenodd" clip-rule="evenodd" d="M7.99897 0.196777C6.09118 0.196777 4.53586 1.03992 3.38346 2.00173C2.23263 2.96223 1.44361 4.07297 1.04845 4.69868L1.03239 4.724C0.953975 4.84743 0.852166 5.00768 0.800698 5.23222C0.759142 5.41353 0.759142 5.6467 0.800698 5.828C0.852166 6.05254 0.953974 6.21279 1.03239 6.33622L1.04845 6.36155C1.44361 6.98725 2.23263 8.09799 3.38346 9.05849C4.53586 10.0203 6.09118 10.8634 7.99897 10.8634C9.90675 10.8634 11.4621 10.0203 12.6145 9.05849C13.7653 8.09799 14.5543 6.98725 14.9495 6.36155L14.9655 6.33623C15.044 6.2128 15.1458 6.05255 15.1972 5.828C15.2388 5.6467 15.2388 5.41353 15.1972 5.23222C15.1458 5.00768 15.044 4.84742 14.9655 4.72399L14.9495 4.69868C14.5543 4.07297 13.7653 2.96223 12.6145 2.00173C11.4621 1.03992 9.90675 0.196777 7.99897 0.196777ZM7.99896 2.86344C6.5262 2.86344 5.3323 4.05735 5.3323 5.53011C5.3323 7.00287 6.5262 8.19678 7.99896 8.19678C9.47172 8.19678 10.6656 7.00287 10.6656 5.53011C10.6656 4.05735 9.47172 2.86344 7.99896 2.86344Z" fill="#3BF062"/>
</svg>
