<svg width="16" height="9" viewBox="0 0 16 9" fill="none" xmlns="http://www.w3.org/2000/svg">
<path d="M9.99935 0.720703C9.63116 0.720703 9.33268 1.01918 9.33268 1.38737C9.33268 1.75556 9.63116 2.05404 9.99935 2.05404H13.0565L8.94886 6.16172C8.80907 6.3015 8.73222 6.37762 8.67277 6.42809L8.66602 6.43377L8.65926 6.42809C8.59981 6.37762 8.52296 6.3015 8.38317 6.16172L6.5433 4.32184C6.42435 4.20286 6.30848 4.08697 6.20234 3.99686C6.08578 3.89791 5.93785 3.79153 5.7447 3.72877C5.47691 3.64176 5.18845 3.64176 4.92066 3.72877C4.72751 3.79153 4.57959 3.89791 4.46302 3.99686C4.35688 4.08697 4.24103 4.20285 4.12207 4.32183L0.861278 7.58263C0.600928 7.84298 0.600928 8.26509 0.861278 8.52544C1.12163 8.78579 1.54374 8.78579 1.80409 8.52544L5.04984 5.27969C5.18962 5.1399 5.26648 5.06378 5.32593 5.01332L5.33268 5.00764L5.33944 5.01332C5.39889 5.06378 5.47574 5.1399 5.61552 5.27969L7.45541 7.11957C7.57437 7.23856 7.69022 7.35444 7.79636 7.44454C7.91292 7.5435 8.06085 7.64988 8.25399 7.71264C8.52178 7.79965 8.81025 7.79965 9.07804 7.71264C9.27118 7.64988 9.41911 7.5435 9.53567 7.44454C9.64182 7.35443 9.75767 7.23855 9.87663 7.11956L13.9993 2.99685V6.05404C13.9993 6.42223 14.2978 6.7207 14.666 6.7207C15.0342 6.7207 15.3327 6.42223 15.3327 6.05404V1.38737C15.3327 1.01918 15.0342 0.720703 14.666 0.720703H9.99935Z" fill="white"/>
<path d="M9.99935 0.720703C9.63116 0.720703 9.33268 1.01918 9.33268 1.38737C9.33268 1.75556 9.63116 2.05404 9.99935 2.05404H13.0565L8.94886 6.16172C8.80907 6.3015 8.73222 6.37762 8.67277 6.42809L8.66602 6.43377L8.65926 6.42809C8.59981 6.37762 8.52296 6.3015 8.38317 6.16172L6.5433 4.32184C6.42435 4.20286 6.30848 4.08697 6.20234 3.99686C6.08578 3.89791 5.93785 3.79153 5.7447 3.72877C5.47691 3.64176 5.18845 3.64176 4.92066 3.72877C4.72751 3.79153 4.57959 3.89791 4.46302 3.99686C4.35688 4.08697 4.24103 4.20285 4.12207 4.32183L0.861278 7.58263C0.600928 7.84298 0.600928 8.26509 0.861278 8.52544C1.12163 8.78579 1.54374 8.78579 1.80409 8.52544L5.04984 5.27969C5.18962 5.1399 5.26648 5.06378 5.32593 5.01332L5.33268 5.00764L5.33944 5.01332C5.39889 5.06378 5.47574 5.1399 5.61552 5.27969L7.45541 7.11957C7.57437 7.23856 7.69022 7.35444 7.79636 7.44454C7.91292 7.5435 8.06085 7.64988 8.25399 7.71264C8.52178 7.79965 8.81025 7.79965 9.07804 7.71264C9.27118 7.64988 9.41911 7.5435 9.53567 7.44454C9.64182 7.35443 9.75767 7.23855 9.87663 7.11956L13.9993 2.99685V6.05404C13.9993 6.42223 14.2978 6.7207 14.666 6.7207C15.0342 6.7207 15.3327 6.42223 15.3327 6.05404V1.38737C15.3327 1.01918 15.0342 0.720703 14.666 0.720703H9.99935Z" fill="black" fill-opacity="0.3"/>
</svg>
