<svg width="15" height="14" viewBox="0 0 15 14" fill="none" xmlns="http://www.w3.org/2000/svg">
<path d="M11.4712 0.743114C11.2109 0.482764 10.7888 0.482764 10.5284 0.743114C10.2681 1.00346 10.2681 1.42557 10.5284 1.68592L11.7237 2.88118L10.5284 4.07645C10.2681 4.3368 10.2681 4.75891 10.5284 5.01926C10.7888 5.27961 11.2109 5.27961 11.4712 5.01926L12.6665 3.82399L13.8618 5.01926C14.1221 5.27961 14.5442 5.27961 14.8046 5.01926C15.0649 4.75891 15.0649 4.3368 14.8046 4.07645L13.6093 2.88118L14.8046 1.68592C15.0649 1.42557 15.0649 1.00346 14.8046 0.743114C14.5442 0.482764 14.1221 0.482764 13.8618 0.743114L12.6665 1.93838L11.4712 0.743114Z" fill="white"/>
<path d="M11.4712 0.743114C11.2109 0.482764 10.7888 0.482764 10.5284 0.743114C10.2681 1.00346 10.2681 1.42557 10.5284 1.68592L11.7237 2.88118L10.5284 4.07645C10.2681 4.3368 10.2681 4.75891 10.5284 5.01926C10.7888 5.27961 11.2109 5.27961 11.4712 5.01926L12.6665 3.82399L13.8618 5.01926C14.1221 5.27961 14.5442 5.27961 14.8046 5.01926C15.0649 4.75891 15.0649 4.3368 14.8046 4.07645L13.6093 2.88118L14.8046 1.68592C15.0649 1.42557 15.0649 1.00346 14.8046 0.743114C14.5442 0.482764 14.1221 0.482764 13.8618 0.743114L12.6665 1.93838L11.4712 0.743114Z" fill="black" fill-opacity="0.3"/>
<path fill-rule="evenodd" clip-rule="evenodd" d="M4.5056 7.88118H7.494C8.03064 7.88118 8.47355 7.88117 8.83435 7.91065C9.20908 7.94126 9.55355 8.00697 9.87711 8.17183C10.3789 8.4275 10.7868 8.83545 11.0425 9.33721C11.2073 9.66077 11.2731 10.0052 11.3037 10.38C11.3331 10.7408 11.3331 11.1837 11.3331 11.7203C11.3331 11.9088 11.3417 12.0997 11.3264 12.2877C11.3185 12.3846 11.2982 12.5232 11.2241 12.6685C11.1283 12.8567 10.9753 13.0097 10.7871 13.1055C10.6418 13.1796 10.5032 13.1999 10.4064 13.2078C10.3228 13.2146 10.228 13.2146 10.1486 13.2145C7.38272 13.2135 4.61688 13.2135 1.85104 13.2145C1.77163 13.2146 1.67679 13.2146 1.59324 13.2078C1.49643 13.1999 1.35777 13.1796 1.21247 13.1055C1.02431 13.0097 0.871332 12.8567 0.775458 12.6685C0.701426 12.5232 0.68113 12.3846 0.67322 12.2877C0.65786 12.0997 0.666465 11.9088 0.666465 11.7203C0.666456 11.1837 0.666449 10.7408 0.695927 10.38C0.726544 10.0052 0.792254 9.66077 0.957114 9.33721C1.21278 8.83545 1.62072 8.4275 2.12249 8.17183C2.44605 8.00697 2.79052 7.94126 3.16525 7.91065C3.52604 7.88117 3.96895 7.88118 4.5056 7.88118Z" fill="white"/>
<path fill-rule="evenodd" clip-rule="evenodd" d="M4.5056 7.88118H7.494C8.03064 7.88118 8.47355 7.88117 8.83435 7.91065C9.20908 7.94126 9.55355 8.00697 9.87711 8.17183C10.3789 8.4275 10.7868 8.83545 11.0425 9.33721C11.2073 9.66077 11.2731 10.0052 11.3037 10.38C11.3331 10.7408 11.3331 11.1837 11.3331 11.7203C11.3331 11.9088 11.3417 12.0997 11.3264 12.2877C11.3185 12.3846 11.2982 12.5232 11.2241 12.6685C11.1283 12.8567 10.9753 13.0097 10.7871 13.1055C10.6418 13.1796 10.5032 13.1999 10.4064 13.2078C10.3228 13.2146 10.228 13.2146 10.1486 13.2145C7.38272 13.2135 4.61688 13.2135 1.85104 13.2145C1.77163 13.2146 1.67679 13.2146 1.59324 13.2078C1.49643 13.1999 1.35777 13.1796 1.21247 13.1055C1.02431 13.0097 0.871332 12.8567 0.775458 12.6685C0.701426 12.5232 0.68113 12.3846 0.67322 12.2877C0.65786 12.0997 0.666465 11.9088 0.666465 11.7203C0.666456 11.1837 0.666449 10.7408 0.695927 10.38C0.726544 10.0052 0.792254 9.66077 0.957114 9.33721C1.21278 8.83545 1.62072 8.4275 2.12249 8.17183C2.44605 8.00697 2.79052 7.94126 3.16525 7.91065C3.52604 7.88117 3.96895 7.88118 4.5056 7.88118Z" fill="black" fill-opacity="0.3"/>
<path fill-rule="evenodd" clip-rule="evenodd" d="M2.9998 3.54785C2.9998 1.891 4.34294 0.547852 5.9998 0.547852C7.65665 0.547852 8.9998 1.891 8.9998 3.54785C8.9998 5.20471 7.65665 6.54785 5.9998 6.54785C4.34294 6.54785 2.9998 5.20471 2.9998 3.54785Z" fill="white"/>
<path fill-rule="evenodd" clip-rule="evenodd" d="M2.9998 3.54785C2.9998 1.891 4.34294 0.547852 5.9998 0.547852C7.65665 0.547852 8.9998 1.891 8.9998 3.54785C8.9998 5.20471 7.65665 6.54785 5.9998 6.54785C4.34294 6.54785 2.9998 5.20471 2.9998 3.54785Z" fill="black" fill-opacity="0.3"/>
</svg>
