<svg width="49" height="49" viewBox="0 0 49 49" fill="none" xmlns="http://www.w3.org/2000/svg">
<rect x="0.666016" y="0.287964" width="48" height="48" rx="24" fill="white" fill-opacity="0.05"/>
<rect x="1.16602" y="0.787964" width="47" height="47" rx="23.5" stroke="white" stroke-opacity="0.1"/>
<path fill-rule="evenodd" clip-rule="evenodd" d="M25.9989 14.2402C26 14.2641 26 14.2772 26 14.3035L26 18.7199C26 18.9723 25.9999 19.218 26.017 19.4262C26.0356 19.6548 26.0797 19.9245 26.218 20.196C26.4097 20.5723 26.7157 20.8782 27.092 21.07C27.3634 21.2083 27.6332 21.2524 27.8618 21.271C28.0699 21.288 28.3157 21.288 28.5681 21.288L32.9845 21.288C33.0107 21.288 33.0238 21.288 33.0477 21.2891C33.5415 21.3127 33.9756 21.747 33.9989 22.2408C34 22.2646 34 22.2724 34 22.2879V29.5293C34 30.3343 34 30.9986 33.9558 31.5398C33.9099 32.1019 33.8113 32.6186 33.564 33.1039C33.1805 33.8566 32.5686 34.4685 31.816 34.852C31.3306 35.0993 30.8139 35.1978 30.2518 35.2438C29.7106 35.288 29.0463 35.288 28.2413 35.288H21.7587C20.9537 35.288 20.2894 35.288 19.7482 35.2438C19.1861 35.1978 18.6694 35.0993 18.184 34.852C17.4314 34.4685 16.8195 33.8566 16.436 33.1039C16.1887 32.6186 16.0901 32.1019 16.0442 31.5398C16 30.9986 16 30.3342 16 29.5293V19.0467C16 18.2417 16 17.5773 16.0442 17.0361C16.0901 16.474 16.1887 15.9573 16.436 15.472C16.8195 14.7194 17.4314 14.1074 18.184 13.7239C18.6694 13.4766 19.1861 13.3781 19.7482 13.3322C20.2894 13.2879 20.9537 13.288 21.7587 13.288H25C25.0156 13.288 25.0234 13.288 25.0473 13.2891C25.541 13.3124 25.9753 13.7465 25.9989 14.2402Z" fill="white"/>
<path fill-rule="evenodd" clip-rule="evenodd" d="M25.9989 14.2402C26 14.2641 26 14.2772 26 14.3035L26 18.7199C26 18.9723 25.9999 19.218 26.017 19.4262C26.0356 19.6548 26.0797 19.9245 26.218 20.196C26.4097 20.5723 26.7157 20.8782 27.092 21.07C27.3634 21.2083 27.6332 21.2524 27.8618 21.271C28.0699 21.288 28.3157 21.288 28.5681 21.288L32.9845 21.288C33.0107 21.288 33.0238 21.288 33.0477 21.2891C33.5415 21.3127 33.9756 21.747 33.9989 22.2408C34 22.2646 34 22.2724 34 22.2879V29.5293C34 30.3343 34 30.9986 33.9558 31.5398C33.9099 32.1019 33.8113 32.6186 33.564 33.1039C33.1805 33.8566 32.5686 34.4685 31.816 34.852C31.3306 35.0993 30.8139 35.1978 30.2518 35.2438C29.7106 35.288 29.0463 35.288 28.2413 35.288H21.7587C20.9537 35.288 20.2894 35.288 19.7482 35.2438C19.1861 35.1978 18.6694 35.0993 18.184 34.852C17.4314 34.4685 16.8195 33.8566 16.436 33.1039C16.1887 32.6186 16.0901 32.1019 16.0442 31.5398C16 30.9986 16 30.3342 16 29.5293V19.0467C16 18.2417 16 17.5773 16.0442 17.0361C16.0901 16.474 16.1887 15.9573 16.436 15.472C16.8195 14.7194 17.4314 14.1074 18.184 13.7239C18.6694 13.4766 19.1861 13.3781 19.7482 13.3322C20.2894 13.2879 20.9537 13.288 21.7587 13.288H25C25.0156 13.288 25.0234 13.288 25.0473 13.2891C25.541 13.3124 25.9753 13.7465 25.9989 14.2402Z" fill="black" fill-opacity="0.3"/>
<path d="M32.4686 19.2142C32.3484 19.288 32.2016 19.288 31.908 19.288L28.8 19.2879C28.52 19.2879 28.38 19.2879 28.273 19.2334C28.1789 19.1855 28.1024 19.109 28.0545 19.0149C28 18.9079 28 18.7679 28 18.4879L28 15.38C28 15.0864 28 14.9396 28.0737 14.8193C28.1779 14.6495 28.4232 14.5479 28.6169 14.5945C28.754 14.6275 28.8497 14.7232 29.041 14.9147L32.3733 18.247C32.5648 18.4383 32.6605 18.5339 32.6935 18.6711C32.74 18.8648 32.6385 19.1101 32.4686 19.2142Z" fill="white"/>
<path d="M32.4686 19.2142C32.3484 19.288 32.2016 19.288 31.908 19.288L28.8 19.2879C28.52 19.2879 28.38 19.2879 28.273 19.2334C28.1789 19.1855 28.1024 19.109 28.0545 19.0149C28 18.9079 28 18.7679 28 18.4879L28 15.38C28 15.0864 28 14.9396 28.0737 14.8193C28.1779 14.6495 28.4232 14.5479 28.6169 14.5945C28.754 14.6275 28.8497 14.7232 29.041 14.9147L32.3733 18.247C32.5648 18.4383 32.6605 18.5339 32.6935 18.6711C32.74 18.8648 32.6385 19.1101 32.4686 19.2142Z" fill="black" fill-opacity="0.3"/>
</svg>
