<svg width="48" height="49" viewBox="0 0 48 49" fill="none" xmlns="http://www.w3.org/2000/svg">
<rect y="0.287964" width="48" height="48" rx="24" fill="white" fill-opacity="0.05"/>
<rect x="0.5" y="0.787964" width="47" height="47" rx="23.5" stroke="white" stroke-opacity="0.1"/>
<path fill-rule="evenodd" clip-rule="evenodd" d="M15 14.288C15.5523 14.288 16 14.7357 16 15.288V31.688C16 31.9845 16.0008 32.1467 16.0103 32.2633C16.0107 32.268 16.0111 32.2724 16.0115 32.2765C16.0156 32.2769 16.02 32.2773 16.0246 32.2777C16.1412 32.2872 16.3035 32.288 16.6 32.288H33C33.5523 32.288 34 32.7357 34 33.288C34 33.8403 33.5523 34.288 33 34.288L16.5682 34.288C16.3158 34.288 16.0699 34.288 15.8618 34.271C15.6332 34.2523 15.3634 34.2083 15.092 34.07C14.7157 33.8782 14.4097 33.5723 14.218 33.1959C14.0797 32.9245 14.0356 32.6548 14.017 32.4262C13.9999 32.218 14 31.9722 14 31.7199L14 15.288C14 14.7357 14.4477 14.288 15 14.288Z" fill="white"/>
<path fill-rule="evenodd" clip-rule="evenodd" d="M32.6837 28.0177C33.0868 27.6401 33.1074 27.0073 32.7297 26.6042L28.8109 22.4216C28.8026 22.4127 28.793 22.4023 28.7823 22.3905C28.6799 22.2787 28.4673 22.0464 28.1846 21.9171C27.9474 21.8087 27.686 21.7639 27.4262 21.7873C27.1167 21.8152 26.8389 21.9636 26.7052 22.035C26.6911 22.0425 26.6786 22.0492 26.6679 22.0548L23.545 23.6763L19.7297 19.6042C19.3521 19.2012 18.7193 19.1806 18.3163 19.5582C17.9133 19.9358 17.8927 20.5687 18.2703 20.9717L22.1891 25.1543C22.1974 25.1632 22.207 25.1736 22.2177 25.1854C22.3201 25.2972 22.5327 25.5295 22.8154 25.6588C23.0526 25.7673 23.314 25.812 23.5738 25.7886C23.8833 25.7607 24.1611 25.6123 24.2948 25.5409C24.3089 25.5334 24.3214 25.5267 24.3321 25.5211L27.455 23.8996L31.2703 27.9717C31.6479 28.3747 32.2807 28.3953 32.6837 28.0177Z" fill="white"/>
</svg>
