<svg width="16" height="14" viewBox="0 0 16 14" fill="none" xmlns="http://www.w3.org/2000/svg">
<path fill-rule="evenodd" clip-rule="evenodd" d="M8.5409 0.112206C8.19602 -0.0411453 7.80231 -0.0411453 7.45743 0.112206C7.19108 0.23064 7.01806 0.439252 6.89766 0.609236C6.77928 0.776363 6.65255 0.995312 6.51316 1.23611L1.00173 10.7559C0.861786 10.9975 0.734617 11.2172 0.64839 11.4035C0.560757 11.593 0.465687 11.8476 0.495987 12.1382C0.535194 12.5143 0.732221 12.856 1.03803 13.0784C1.27436 13.2502 1.54236 13.2955 1.7502 13.3146C1.9547 13.3333 2.20847 13.3333 2.48773 13.3333H13.5106C13.7898 13.3333 14.0436 13.3333 14.2481 13.3146C14.456 13.2955 14.724 13.2502 14.9603 13.0784C15.2661 12.856 15.4631 12.5143 15.5023 12.1382C15.5326 11.8476 15.4376 11.593 15.3499 11.4035C15.2637 11.2172 15.1366 10.9976 14.9966 10.7559L9.48516 1.23608C9.34578 0.995301 9.21905 0.776354 9.10067 0.609235C8.98027 0.439252 8.80725 0.23064 8.5409 0.112206ZM8.66585 4.99996C8.66585 4.63177 8.36738 4.33329 7.99919 4.33329C7.631 4.33329 7.33252 4.63177 7.33252 4.99996V7.66663C7.33252 8.03481 7.631 8.33329 7.99919 8.33329C8.36738 8.33329 8.66585 8.03481 8.66585 7.66663V4.99996ZM7.99919 9.66663C7.631 9.66663 7.33252 9.9651 7.33252 10.3333C7.33252 10.7015 7.631 11 7.99919 11H8.00585C8.37404 11 8.67252 10.7015 8.67252 10.3333C8.67252 9.9651 8.37404 9.66663 8.00585 9.66663H7.99919Z" fill="#3BF062"/>
</svg>
