<svg width="49" height="49" viewBox="0 0 49 49" fill="none" xmlns="http://www.w3.org/2000/svg">
<rect x="0.333984" y="0.287964" width="48" height="48" rx="24" fill="white" fill-opacity="0.05"/>
<rect x="0.833984" y="0.787964" width="47" height="47" rx="23.5" stroke="white" stroke-opacity="0.1"/>
<path fill-rule="evenodd" clip-rule="evenodd" d="M25.0001 15.288C25.0001 14.7357 24.5523 14.288 24.0001 14.288C23.4478 14.288 23.0001 14.7357 23.0001 15.288V19.441L17.854 20.2987C17.7918 20.3078 17.7311 20.3228 17.6725 20.3431C17.545 20.3871 17.4307 20.4555 17.334 20.542C17.2547 20.6128 17.1861 20.6968 17.1318 20.7918L13.5269 27.1003C13.3957 27.3296 13.2799 27.532 13.196 27.7527C13.1221 27.947 13.0686 28.1484 13.0364 28.3537C12.9997 28.5871 12.9999 28.8202 13 29.0844L13 29.288C13 29.2909 13.0001 29.2938 13.0001 29.2968C13.0048 32.0541 15.2416 34.288 18.0001 34.288C20.7615 34.288 23.0001 32.0494 23.0001 29.288L23.0001 29.0648C23.0001 29.0553 23.0001 29.0457 23.0001 29.0359C23.0001 28.7915 22.9981 28.5727 22.9637 28.3537C22.9315 28.1484 22.878 27.947 22.8041 27.7527C22.7202 27.532 22.6044 27.3296 22.4732 27.1003L19.5807 22.0385L28.0867 20.6208L25.5269 25.1003C25.3957 25.3296 25.2799 25.532 25.196 25.7527C25.1221 25.947 25.0686 26.1484 25.0364 26.3537C24.9997 26.5871 24.9999 26.8202 25 27.0844L25 27.288C25 27.2909 25.0001 27.2938 25.0001 27.2968C25.0048 30.0542 27.2416 32.288 30.0001 32.288C32.7615 32.288 35.0001 30.0494 35.0001 27.288L35.0001 27.0648C35.0001 27.0525 35.0001 27.04 35.0001 27.0272C35.0001 26.7863 34.9977 26.5701 34.9637 26.3537C34.9315 26.1484 34.878 25.947 34.8041 25.7527C34.7202 25.532 34.6044 25.3296 34.4732 25.1003L30.878 18.8087C30.8417 18.7423 30.7983 18.6809 30.7489 18.6252C30.562 18.414 30.2917 18.2889 30.0034 18.288L30 18.288C29.938 18.288 29.8769 18.2937 29.8172 18.3048L25.0001 19.1077V15.288ZM32.2769 25.288L30 21.3035L27.7232 25.288H32.2769ZM20.2769 27.288L18 23.3035L15.7232 27.288H20.2769Z" fill="white"/>
<path fill-rule="evenodd" clip-rule="evenodd" d="M25.0001 15.288C25.0001 14.7357 24.5523 14.288 24.0001 14.288C23.4478 14.288 23.0001 14.7357 23.0001 15.288V19.441L17.854 20.2987C17.7918 20.3078 17.7311 20.3228 17.6725 20.3431C17.545 20.3871 17.4307 20.4555 17.334 20.542C17.2547 20.6128 17.1861 20.6968 17.1318 20.7918L13.5269 27.1003C13.3957 27.3296 13.2799 27.532 13.196 27.7527C13.1221 27.947 13.0686 28.1484 13.0364 28.3537C12.9997 28.5871 12.9999 28.8202 13 29.0844L13 29.288C13 29.2909 13.0001 29.2938 13.0001 29.2968C13.0048 32.0541 15.2416 34.288 18.0001 34.288C20.7615 34.288 23.0001 32.0494 23.0001 29.288L23.0001 29.0648C23.0001 29.0553 23.0001 29.0457 23.0001 29.0359C23.0001 28.7915 22.9981 28.5727 22.9637 28.3537C22.9315 28.1484 22.878 27.947 22.8041 27.7527C22.7202 27.532 22.6044 27.3296 22.4732 27.1003L19.5807 22.0385L28.0867 20.6208L25.5269 25.1003C25.3957 25.3296 25.2799 25.532 25.196 25.7527C25.1221 25.947 25.0686 26.1484 25.0364 26.3537C24.9997 26.5871 24.9999 26.8202 25 27.0844L25 27.288C25 27.2909 25.0001 27.2938 25.0001 27.2968C25.0048 30.0542 27.2416 32.288 30.0001 32.288C32.7615 32.288 35.0001 30.0494 35.0001 27.288L35.0001 27.0648C35.0001 27.0525 35.0001 27.04 35.0001 27.0272C35.0001 26.7863 34.9977 26.5701 34.9637 26.3537C34.9315 26.1484 34.878 25.947 34.8041 25.7527C34.7202 25.532 34.6044 25.3296 34.4732 25.1003L30.878 18.8087C30.8417 18.7423 30.7983 18.6809 30.7489 18.6252C30.562 18.414 30.2917 18.2889 30.0034 18.288L30 18.288C29.938 18.288 29.8769 18.2937 29.8172 18.3048L25.0001 19.1077V15.288ZM32.2769 25.288L30 21.3035L27.7232 25.288H32.2769ZM20.2769 27.288L18 23.3035L15.7232 27.288H20.2769Z" fill="black" fill-opacity="0.3"/>
</svg>
