<svg width="16" height="14" viewBox="0 0 16 14" fill="none" xmlns="http://www.w3.org/2000/svg">
<path fill-rule="evenodd" clip-rule="evenodd" d="M2.47075 0.528575C2.2104 0.268226 1.78829 0.268226 1.52794 0.528575C1.26759 0.788925 1.26759 1.21103 1.52794 1.47138L3.99394 3.93738C3.77971 4.29487 3.61184 4.68364 3.49884 5.09525C1.87528 5.47297 0.666016 6.92822 0.666016 8.66656C0.666016 10.6916 2.30764 12.3332 4.33268 12.3332H11.666C11.8908 12.3332 12.1114 12.3129 12.3259 12.2739L12.3297 12.2732L13.5279 13.4714C13.7883 13.7317 14.2104 13.7317 14.4708 13.4714C14.7311 13.211 14.7311 12.7889 14.4708 12.5286L2.47075 0.528575Z" fill="white"/>
<path fill-rule="evenodd" clip-rule="evenodd" d="M2.47075 0.528575C2.2104 0.268226 1.78829 0.268226 1.52794 0.528575C1.26759 0.788925 1.26759 1.21103 1.52794 1.47138L3.99394 3.93738C3.77971 4.29487 3.61184 4.68364 3.49884 5.09525C1.87528 5.47297 0.666016 6.92822 0.666016 8.66656C0.666016 10.6916 2.30764 12.3332 4.33268 12.3332H11.666C11.8908 12.3332 12.1114 12.3129 12.3259 12.2739L12.3297 12.2732L13.5279 13.4714C13.7883 13.7317 14.2104 13.7317 14.4708 13.4714C14.7311 13.211 14.7311 12.7889 14.4708 12.5286L2.47075 0.528575Z" fill="black" fill-opacity="0.3"/>
<path d="M14.6398 10.812C15.0758 10.2088 15.3327 9.46775 15.3327 8.66665C15.3327 6.92831 14.1234 5.47305 12.4999 5.09533C11.9572 3.11876 10.1484 1.66665 7.99935 1.66665C7.26863 1.66665 6.57726 1.83453 5.96161 2.13382L14.6398 10.812Z" fill="white"/>
<path d="M14.6398 10.812C15.0758 10.2088 15.3327 9.46775 15.3327 8.66665C15.3327 6.92831 14.1234 5.47305 12.4999 5.09533C11.9572 3.11876 10.1484 1.66665 7.99935 1.66665C7.26863 1.66665 6.57726 1.83453 5.96161 2.13382L14.6398 10.812Z" fill="black" fill-opacity="0.3"/>
</svg>
