<svg width="16" height="14" viewBox="0 0 16 14" fill="none" xmlns="http://www.w3.org/2000/svg">
<path fill-rule="evenodd" clip-rule="evenodd" d="M10.8613 3.19526C11.1216 2.93491 11.5437 2.93491 11.8041 3.19526L15.1374 6.5286C15.3978 6.78895 15.3978 7.21106 15.1374 7.47141L11.8041 10.8047C11.5437 11.0651 11.1216 11.0651 10.8613 10.8047C10.6009 10.5444 10.6009 10.1223 10.8613 9.86193L13.7232 7L10.8613 4.13807C10.6009 3.87772 10.6009 3.45561 10.8613 3.19526Z" fill="white"/>
<path fill-rule="evenodd" clip-rule="evenodd" d="M10.8613 3.19526C11.1216 2.93491 11.5437 2.93491 11.8041 3.19526L15.1374 6.5286C15.3978 6.78895 15.3978 7.21106 15.1374 7.47141L11.8041 10.8047C11.5437 11.0651 11.1216 11.0651 10.8613 10.8047C10.6009 10.5444 10.6009 10.1223 10.8613 9.86193L13.7232 7L10.8613 4.13807C10.6009 3.87772 10.6009 3.45561 10.8613 3.19526Z" fill="black" fill-opacity="0.3"/>
<path fill-rule="evenodd" clip-rule="evenodd" d="M5.13742 3.19526C5.39777 3.45561 5.39777 3.87772 5.13742 4.13807L2.27549 7L5.13742 9.86193C5.39777 10.1223 5.39777 10.5444 5.13742 10.8047C4.87707 11.0651 4.45496 11.0651 4.19461 10.8047L0.861278 7.47141C0.600928 7.21106 0.600928 6.78895 0.861278 6.5286L4.19461 3.19526C4.45496 2.93491 4.87707 2.93491 5.13742 3.19526Z" fill="white"/>
<path fill-rule="evenodd" clip-rule="evenodd" d="M5.13742 3.19526C5.39777 3.45561 5.39777 3.87772 5.13742 4.13807L2.27549 7L5.13742 9.86193C5.39777 10.1223 5.39777 10.5444 5.13742 10.8047C4.87707 11.0651 4.45496 11.0651 4.19461 10.8047L0.861278 7.47141C0.600928 7.21106 0.600928 6.78895 0.861278 6.5286L4.19461 3.19526C4.45496 2.93491 4.87707 2.93491 5.13742 3.19526Z" fill="black" fill-opacity="0.3"/>
<path fill-rule="evenodd" clip-rule="evenodd" d="M9.4773 0.349209C9.83672 0.429081 10.0633 0.785199 9.98347 1.14462L7.31681 13.1446C7.23693 13.504 6.88082 13.7307 6.5214 13.6508C6.16197 13.5709 5.93535 13.2148 6.01522 12.8554L8.68189 0.85538C8.76176 0.495958 9.11788 0.269337 9.4773 0.349209Z" fill="white"/>
<path fill-rule="evenodd" clip-rule="evenodd" d="M9.4773 0.349209C9.83672 0.429081 10.0633 0.785199 9.98347 1.14462L7.31681 13.1446C7.23693 13.504 6.88082 13.7307 6.5214 13.6508C6.16197 13.5709 5.93535 13.2148 6.01522 12.8554L8.68189 0.85538C8.76176 0.495958 9.11788 0.269337 9.4773 0.349209Z" fill="black" fill-opacity="0.3"/>
</svg>
