<svg width="14" height="16" viewBox="0 0 14 16" fill="none" xmlns="http://www.w3.org/2000/svg">
<path fill-rule="evenodd" clip-rule="evenodd" d="M7.66732 9.98839C9.12382 9.93725 10.4462 9.71975 11.4618 9.38071C12.0426 9.18681 12.56 8.94103 12.9459 8.63524C13.3252 8.33472 13.6673 7.89961 13.6673 7.33335V3.33335C13.6673 2.76539 13.3214 2.33041 12.9418 2.03126C12.5547 1.72618 12.0358 1.48059 11.4541 1.28668C10.2837 0.896551 8.70922 0.666687 7.00065 0.666687C5.29208 0.666687 3.71759 0.896551 2.54719 1.28668C1.96548 1.48059 1.44663 1.72618 1.05951 2.03126C0.679913 2.33041 0.333984 2.76539 0.333984 3.33335V7.33335C0.333984 7.89961 0.676114 8.33472 1.05536 8.63524C1.44126 8.94103 1.95873 9.18681 2.53954 9.38071C3.55508 9.71975 4.87749 9.93725 6.33398 9.98839V11.4472C5.76571 11.648 5.31531 12.0984 5.11446 12.6667H1.00065C0.632461 12.6667 0.333984 12.9652 0.333984 13.3334C0.333984 13.7015 0.632461 14 1.00065 14H5.11446C5.38901 14.7768 6.12984 15.3334 7.00065 15.3334C7.87146 15.3334 8.61229 14.7768 8.88685 14H13.0007C13.3688 14 13.6673 13.7015 13.6673 13.3334C13.6673 12.9652 13.3688 12.6667 13.0007 12.6667H8.88685C8.68599 12.0984 8.23559 11.648 7.66732 11.4472V9.98839ZM1.66732 3.33331C1.66732 3.33331 1.66731 3.32988 1.66935 3.32316C1.67162 3.31573 1.6772 3.30105 1.6907 3.27907C1.719 3.23297 1.7767 3.16367 1.88481 3.07847C2.10493 2.905 2.46476 2.71962 2.96883 2.5516C3.97 2.21787 5.39551 2.00002 7.00065 2.00002C8.60579 2.00002 10.0313 2.21787 11.0325 2.5516C11.5365 2.71962 11.8964 2.905 12.1165 3.07847C12.2246 3.16367 12.2823 3.23297 12.3106 3.27907C12.3241 3.30105 12.3297 3.31573 12.3319 3.32316C12.334 3.32988 12.334 3.33331 12.334 3.33331C12.334 3.33331 12.3339 3.33716 12.3319 3.34355C12.3297 3.35098 12.3241 3.36565 12.3106 3.38764C12.2823 3.43374 12.2246 3.50304 12.1165 3.58824C11.8964 3.76171 11.5365 3.94709 11.0325 4.11511C10.0313 4.44884 8.60579 4.66669 7.00065 4.66669C5.39551 4.66669 3.97 4.44884 2.96883 4.11511C2.46476 3.94709 2.10493 3.76171 1.88481 3.58824C1.7767 3.50304 1.719 3.43374 1.6907 3.38764C1.6772 3.36565 1.67162 3.35098 1.66935 3.34355C1.66744 3.33725 1.66732 3.33331 1.66732 3.33331Z" fill="white"/>
<path fill-rule="evenodd" clip-rule="evenodd" d="M7.66732 9.98839C9.12382 9.93725 10.4462 9.71975 11.4618 9.38071C12.0426 9.18681 12.56 8.94103 12.9459 8.63524C13.3252 8.33472 13.6673 7.89961 13.6673 7.33335V3.33335C13.6673 2.76539 13.3214 2.33041 12.9418 2.03126C12.5547 1.72618 12.0358 1.48059 11.4541 1.28668C10.2837 0.896551 8.70922 0.666687 7.00065 0.666687C5.29208 0.666687 3.71759 0.896551 2.54719 1.28668C1.96548 1.48059 1.44663 1.72618 1.05951 2.03126C0.679913 2.33041 0.333984 2.76539 0.333984 3.33335V7.33335C0.333984 7.89961 0.676114 8.33472 1.05536 8.63524C1.44126 8.94103 1.95873 9.18681 2.53954 9.38071C3.55508 9.71975 4.87749 9.93725 6.33398 9.98839V11.4472C5.76571 11.648 5.31531 12.0984 5.11446 12.6667H1.00065C0.632461 12.6667 0.333984 12.9652 0.333984 13.3334C0.333984 13.7015 0.632461 14 1.00065 14H5.11446C5.38901 14.7768 6.12984 15.3334 7.00065 15.3334C7.87146 15.3334 8.61229 14.7768 8.88685 14H13.0007C13.3688 14 13.6673 13.7015 13.6673 13.3334C13.6673 12.9652 13.3688 12.6667 13.0007 12.6667H8.88685C8.68599 12.0984 8.23559 11.648 7.66732 11.4472V9.98839ZM1.66732 3.33331C1.66732 3.33331 1.66731 3.32988 1.66935 3.32316C1.67162 3.31573 1.6772 3.30105 1.6907 3.27907C1.719 3.23297 1.7767 3.16367 1.88481 3.07847C2.10493 2.905 2.46476 2.71962 2.96883 2.5516C3.97 2.21787 5.39551 2.00002 7.00065 2.00002C8.60579 2.00002 10.0313 2.21787 11.0325 2.5516C11.5365 2.71962 11.8964 2.905 12.1165 3.07847C12.2246 3.16367 12.2823 3.23297 12.3106 3.27907C12.3241 3.30105 12.3297 3.31573 12.3319 3.32316C12.334 3.32988 12.334 3.33331 12.334 3.33331C12.334 3.33331 12.3339 3.33716 12.3319 3.34355C12.3297 3.35098 12.3241 3.36565 12.3106 3.38764C12.2823 3.43374 12.2246 3.50304 12.1165 3.58824C11.8964 3.76171 11.5365 3.94709 11.0325 4.11511C10.0313 4.44884 8.60579 4.66669 7.00065 4.66669C5.39551 4.66669 3.97 4.44884 2.96883 4.11511C2.46476 3.94709 2.10493 3.76171 1.88481 3.58824C1.7767 3.50304 1.719 3.43374 1.6907 3.38764C1.6772 3.36565 1.67162 3.35098 1.66935 3.34355C1.66744 3.33725 1.66732 3.33331 1.66732 3.33331Z" fill="black" fill-opacity="0.3"/>
</svg>
