<svg width="16" height="17" viewBox="0 0 16 17" fill="none" xmlns="http://www.w3.org/2000/svg">
<mask id="path-1-inside-1_468_7109" fill="white">
<path fill-rule="evenodd" clip-rule="evenodd" d="M12.4925 11.0959C12.8601 12.1228 14.2257 12.3252 14.405 11.2493C14.4809 10.7938 14.5203 10.3259 14.5203 9.84879C14.5203 5.17626 10.7325 1.38843 6.05998 1.38843C5.79852 1.38843 5.53983 1.40029 5.28442 1.4235C4.19804 1.52223 4.29791 2.89907 5.29457 3.34249C8.63241 4.82752 11.2529 7.63316 12.4925 11.0959Z"/>
</mask>
<path fill-rule="evenodd" clip-rule="evenodd" d="M12.4925 11.0959C12.8601 12.1228 14.2257 12.3252 14.405 11.2493C14.4809 10.7938 14.5203 10.3259 14.5203 9.84879C14.5203 5.17626 10.7325 1.38843 6.05998 1.38843C5.79852 1.38843 5.53983 1.40029 5.28442 1.4235C4.19804 1.52223 4.29791 2.89907 5.29457 3.34249C8.63241 4.82752 11.2529 7.63316 12.4925 11.0959Z" fill="#3BF062"/>
<path d="M14.405 11.2493L12.714 10.9676L14.405 11.2493ZM12.8061 9.84879C12.8061 10.2311 12.7744 10.6048 12.714 10.9676L16.0959 11.531C16.1873 10.9828 16.2346 10.4207 16.2346 9.84879H12.8061ZM6.05998 3.10271C9.78574 3.10271 12.8061 6.12304 12.8061 9.84879H16.2346C16.2346 4.22949 11.6793 -0.325858 6.05998 -0.325858V3.10271ZM5.43958 3.13075C5.64347 3.11222 5.85039 3.10271 6.05998 3.10271V-0.325858C5.74665 -0.325858 5.43619 -0.311643 5.12926 -0.28375L5.43958 3.13075ZM4.59773 4.90876C7.51015 6.20451 9.79768 8.65444 10.8785 11.6736L14.1065 10.5181C12.7081 6.61189 9.75468 3.45052 5.99141 1.77623L4.59773 4.90876ZM5.12926 -0.28375C4.48186 -0.224913 3.84445 0.0493921 3.3832 0.590221C2.93443 1.11641 2.7763 1.74989 2.79503 2.31093C2.83149 3.40332 3.52203 4.43017 4.59773 4.90876L5.99141 1.77623C6.07045 1.81139 6.21273 1.92812 6.22169 2.19655C6.22666 2.34561 6.18497 2.58865 5.99187 2.81506C5.7863 3.0561 5.54379 3.12128 5.43958 3.13075L5.12926 -0.28375ZM12.714 10.9676C12.7312 10.8643 12.8143 10.6271 13.0702 10.44C13.3105 10.2642 13.5561 10.2408 13.7044 10.2569C13.9714 10.2859 14.0773 10.4365 14.1065 10.5181L10.8785 11.6736C11.2753 12.7822 12.2478 13.5475 13.3343 13.6654C13.8924 13.726 14.5359 13.6157 15.0942 13.2074C15.6681 12.7877 15.9891 12.1723 16.0959 11.531L12.714 10.9676Z" fill="#3BF062" mask="url(#path-1-inside-1_468_7109)"/>
<path d="M9.23438 6.82131L9.42283 7.00977L3.18789 13.2447C3.13585 13.2968 3.05147 13.2968 2.99943 13.2447C2.94739 13.1927 2.94739 13.1083 2.99943 13.0563L9.23438 6.82131Z" fill="#3BF062" stroke="#3BF062" stroke-width="1.71429"/>
</svg>
