<svg width="16" height="15" viewBox="0 0 16 15" fill="none" xmlns="http://www.w3.org/2000/svg">
<path fill-rule="evenodd" clip-rule="evenodd" d="M3.77903 2.69011C3.70482 2.47766 3.66602 2.25236 3.66602 2.02344C3.66602 1.49684 3.87136 0.989448 4.2406 0.61349C4.61025 0.237125 5.11417 0.0234375 5.64221 0.0234375C6.83868 0.0234375 7.58104 0.835744 7.99935 1.53826C8.41766 0.835744 9.16003 0.0234375 10.3565 0.0234375C10.8845 0.0234375 11.3885 0.237125 11.7581 0.61349C12.1273 0.989448 12.3327 1.49684 12.3327 2.02344C12.3327 2.25236 12.2939 2.47766 12.2197 2.69011L13.6837 2.69011C13.8237 2.69009 13.9601 2.69008 14.0762 2.698C14.2031 2.70666 14.3536 2.72697 14.5096 2.7916C14.8363 2.92693 15.0959 3.18649 15.2312 3.5132C15.2958 3.66923 15.3161 3.81971 15.3248 3.94662C15.3327 4.06261 15.3327 4.19905 15.3327 4.33899V4.37455C15.3327 4.51449 15.3327 4.65094 15.3248 4.76693C15.3161 4.89384 15.2958 5.04432 15.2312 5.20035C15.0959 5.52706 14.8363 5.78662 14.5096 5.92195C14.3536 5.98658 14.2031 6.00689 14.0762 6.01555C13.9601 6.02347 13.8237 6.02346 13.6837 6.02344H2.31503C2.17501 6.02346 2.03859 6.02347 1.92254 6.01555C1.79562 6.00689 1.64514 5.98658 1.48911 5.92195C1.16241 5.78662 0.90284 5.52706 0.767514 5.20035C0.702885 5.04432 0.68257 4.89384 0.67391 4.76693C0.665995 4.65091 0.666006 4.5145 0.666016 4.37453V4.33906C0.666006 4.19909 0.665995 4.06263 0.67391 3.94662C0.68257 3.81971 0.702886 3.66923 0.767515 3.5132C0.90284 3.18649 1.16241 2.92693 1.48911 2.7916C1.64514 2.72697 1.79562 2.70666 1.92254 2.698C2.03856 2.69008 2.17505 2.69009 2.31504 2.6901L3.77903 2.69011ZM5.64221 1.35677C5.47563 1.35677 5.31339 1.42404 5.19187 1.54777C5.06994 1.67191 4.99935 1.84279 4.99935 2.02344C4.99935 2.20409 5.06994 2.37497 5.19187 2.49911C5.31339 2.62284 5.47563 2.6901 5.64221 2.6901H7.08885C7.04059 2.57587 6.98506 2.45754 6.92172 2.34028C6.59781 1.74064 6.182 1.35677 5.64221 1.35677ZM8.90986 2.6901C8.95811 2.57587 9.01365 2.45754 9.07699 2.34028C9.4009 1.74064 9.81671 1.35677 10.3565 1.35677C10.5231 1.35677 10.6853 1.42404 10.8068 1.54777C10.9288 1.67191 10.9994 1.84279 10.9994 2.02344C10.9994 2.20409 10.9288 2.37497 10.8068 2.49911C10.6853 2.62284 10.5231 2.6901 10.3565 2.6901H8.90986Z" fill="white"/>
<path fill-rule="evenodd" clip-rule="evenodd" d="M3.77903 2.69011C3.70482 2.47766 3.66602 2.25236 3.66602 2.02344C3.66602 1.49684 3.87136 0.989448 4.2406 0.61349C4.61025 0.237125 5.11417 0.0234375 5.64221 0.0234375C6.83868 0.0234375 7.58104 0.835744 7.99935 1.53826C8.41766 0.835744 9.16003 0.0234375 10.3565 0.0234375C10.8845 0.0234375 11.3885 0.237125 11.7581 0.61349C12.1273 0.989448 12.3327 1.49684 12.3327 2.02344C12.3327 2.25236 12.2939 2.47766 12.2197 2.69011L13.6837 2.69011C13.8237 2.69009 13.9601 2.69008 14.0762 2.698C14.2031 2.70666 14.3536 2.72697 14.5096 2.7916C14.8363 2.92693 15.0959 3.18649 15.2312 3.5132C15.2958 3.66923 15.3161 3.81971 15.3248 3.94662C15.3327 4.06261 15.3327 4.19905 15.3327 4.33899V4.37455C15.3327 4.51449 15.3327 4.65094 15.3248 4.76693C15.3161 4.89384 15.2958 5.04432 15.2312 5.20035C15.0959 5.52706 14.8363 5.78662 14.5096 5.92195C14.3536 5.98658 14.2031 6.00689 14.0762 6.01555C13.9601 6.02347 13.8237 6.02346 13.6837 6.02344H2.31503C2.17501 6.02346 2.03859 6.02347 1.92254 6.01555C1.79562 6.00689 1.64514 5.98658 1.48911 5.92195C1.16241 5.78662 0.90284 5.52706 0.767514 5.20035C0.702885 5.04432 0.68257 4.89384 0.67391 4.76693C0.665995 4.65091 0.666006 4.5145 0.666016 4.37453V4.33906C0.666006 4.19909 0.665995 4.06263 0.67391 3.94662C0.68257 3.81971 0.702886 3.66923 0.767515 3.5132C0.90284 3.18649 1.16241 2.92693 1.48911 2.7916C1.64514 2.72697 1.79562 2.70666 1.92254 2.698C2.03856 2.69008 2.17505 2.69009 2.31504 2.6901L3.77903 2.69011ZM5.64221 1.35677C5.47563 1.35677 5.31339 1.42404 5.19187 1.54777C5.06994 1.67191 4.99935 1.84279 4.99935 2.02344C4.99935 2.20409 5.06994 2.37497 5.19187 2.49911C5.31339 2.62284 5.47563 2.6901 5.64221 2.6901H7.08885C7.04059 2.57587 6.98506 2.45754 6.92172 2.34028C6.59781 1.74064 6.182 1.35677 5.64221 1.35677ZM8.90986 2.6901C8.95811 2.57587 9.01365 2.45754 9.07699 2.34028C9.4009 1.74064 9.81671 1.35677 10.3565 1.35677C10.5231 1.35677 10.6853 1.42404 10.8068 1.54777C10.9288 1.67191 10.9994 1.84279 10.9994 2.02344C10.9994 2.20409 10.9288 2.37497 10.8068 2.49911C10.6853 2.62284 10.5231 2.6901 10.3565 2.6901H8.90986Z" fill="black" fill-opacity="0.3"/>
<path d="M1.99935 8.02344C1.99935 7.65525 2.29783 7.35677 2.66602 7.35677H6.79935C6.98603 7.35677 7.07938 7.35677 7.15068 7.3931C7.2134 7.42506 7.26439 7.47605 7.29635 7.53878C7.33268 7.61008 7.33268 7.70342 7.33268 7.89011V14.1568C7.33268 14.3435 7.33268 14.4368 7.29635 14.5081C7.26439 14.5708 7.2134 14.6218 7.15068 14.6538C7.07938 14.6901 6.98603 14.6901 6.79935 14.6901H4.77359C4.42223 14.6901 4.11901 14.6901 3.86933 14.6697C3.60577 14.6482 3.34362 14.6006 3.09137 14.4721C2.71505 14.2804 2.40909 13.9744 2.21734 13.5981C2.08881 13.3458 2.04127 13.0837 2.01973 12.8201C1.99933 12.5704 1.99934 12.2672 1.99935 11.9158L1.99935 8.02344Z" fill="white"/>
<path d="M1.99935 8.02344C1.99935 7.65525 2.29783 7.35677 2.66602 7.35677H6.79935C6.98603 7.35677 7.07938 7.35677 7.15068 7.3931C7.2134 7.42506 7.26439 7.47605 7.29635 7.53878C7.33268 7.61008 7.33268 7.70342 7.33268 7.89011V14.1568C7.33268 14.3435 7.33268 14.4368 7.29635 14.5081C7.26439 14.5708 7.2134 14.6218 7.15068 14.6538C7.07938 14.6901 6.98603 14.6901 6.79935 14.6901H4.77359C4.42223 14.6901 4.11901 14.6901 3.86933 14.6697C3.60577 14.6482 3.34362 14.6006 3.09137 14.4721C2.71505 14.2804 2.40909 13.9744 2.21734 13.5981C2.08881 13.3458 2.04127 13.0837 2.01973 12.8201C1.99933 12.5704 1.99934 12.2672 1.99935 11.9158L1.99935 8.02344Z" fill="black" fill-opacity="0.3"/>
<path d="M12.1294 14.6697C11.8797 14.6901 11.5765 14.6901 11.225 14.6901H9.19935C9.01267 14.6901 8.91932 14.6901 8.84802 14.6538C8.7853 14.6218 8.73431 14.5708 8.70235 14.5081C8.66602 14.4368 8.66602 14.3435 8.66602 14.1568V7.89011C8.66602 7.70342 8.66602 7.61008 8.70235 7.53878C8.73431 7.47605 8.7853 7.42506 8.84802 7.3931C8.91932 7.35677 9.01267 7.35677 9.19935 7.35677H13.3327C13.7009 7.35677 13.9994 7.65525 13.9994 8.02344V11.9158C13.9994 12.2672 13.9994 12.5704 13.979 12.8201C13.9574 13.0837 13.9099 13.3458 13.7814 13.5981C13.5896 13.9744 13.2837 14.2804 12.9073 14.4721C12.6551 14.6006 12.3929 14.6482 12.1294 14.6697Z" fill="white"/>
<path d="M12.1294 14.6697C11.8797 14.6901 11.5765 14.6901 11.225 14.6901H9.19935C9.01267 14.6901 8.91932 14.6901 8.84802 14.6538C8.7853 14.6218 8.73431 14.5708 8.70235 14.5081C8.66602 14.4368 8.66602 14.3435 8.66602 14.1568V7.89011C8.66602 7.70342 8.66602 7.61008 8.70235 7.53878C8.73431 7.47605 8.7853 7.42506 8.84802 7.3931C8.91932 7.35677 9.01267 7.35677 9.19935 7.35677H13.3327C13.7009 7.35677 13.9994 7.65525 13.9994 8.02344V11.9158C13.9994 12.2672 13.9994 12.5704 13.979 12.8201C13.9574 13.0837 13.9099 13.3458 13.7814 13.5981C13.5896 13.9744 13.2837 14.2804 12.9073 14.4721C12.6551 14.6006 12.3929 14.6482 12.1294 14.6697Z" fill="black" fill-opacity="0.3"/>
</svg>
