<svg width="16" height="15" viewBox="0 0 16 15" fill="none" xmlns="http://www.w3.org/2000/svg">
<path fill-rule="evenodd" clip-rule="evenodd" d="M8.0013 0.00537109C3.95121 0.00537109 0.667969 3.28862 0.667969 7.3387C0.667969 11.3888 3.95121 14.672 8.0013 14.672C12.0514 14.672 15.3346 11.3888 15.3346 7.3387C15.3346 3.28862 12.0514 0.00537109 8.0013 0.00537109ZM7.27239 4.85286C7.54386 4.69331 7.86303 4.63499 8.17338 4.68822C8.48372 4.74146 8.76522 4.90281 8.968 5.1437C9.17078 5.38459 9.28177 5.68947 9.2813 6.00435L9.2813 6.00535C9.2813 6.3181 9.0379 6.64416 8.57816 6.95065C8.36859 7.09036 8.15426 7.198 7.98971 7.27114C7.90838 7.30728 7.84153 7.33398 7.79657 7.3511C7.77662 7.3587 7.75659 7.36605 7.73645 7.37312C7.3876 7.48982 7.19916 7.8671 7.31551 8.21616C7.43194 8.56546 7.80949 8.75423 8.15878 8.6378L8.27123 8.59709C8.33565 8.57255 8.42506 8.53674 8.53122 8.48955C8.74167 8.39602 9.02734 8.25366 9.31777 8.06005C9.85792 7.69994 10.6143 7.02619 10.6146 6.00595C10.6155 5.37633 10.3935 4.76671 9.98803 4.28503C9.58247 3.80325 9.01948 3.48055 8.39879 3.37408C7.77809 3.26762 7.13975 3.38426 6.59681 3.70335C6.05388 4.02243 5.64139 4.52338 5.43241 5.11745C5.31023 5.46478 5.49274 5.84539 5.84007 5.96757C6.1874 6.08975 6.56801 5.90723 6.69019 5.55991C6.79468 5.26287 7.00092 5.0124 7.27239 4.85286ZM8.0013 10.0053C7.63311 10.0053 7.33463 10.3038 7.33463 10.672C7.33463 11.0402 7.63311 11.3387 8.0013 11.3387H8.00797C8.37616 11.3387 8.67463 11.0402 8.67463 10.672C8.67463 10.3038 8.37616 10.0053 8.00797 10.0053H8.0013Z" fill="#3BF062"/>
</svg>