<svg width="14" height="16" viewBox="0 0 14 16" fill="none" xmlns="http://www.w3.org/2000/svg">
<path d="M8.33398 3.33335C8.33398 1.86059 9.52789 0.666687 11.0007 0.666687C12.4734 0.666687 13.6673 1.86059 13.6673 3.33335C13.6673 4.80611 12.4734 6.00002 11.0007 6.00002C10.2597 6.00002 9.58929 5.69781 9.10602 5.20992L5.56755 7.27489C5.63254 7.50545 5.66732 7.74867 5.66732 8.00002C5.66732 8.25123 5.63258 8.49432 5.56765 8.72476L9.1082 10.7879C9.59131 10.3013 10.2608 10 11.0007 10C12.4734 10 13.6673 11.1939 13.6673 12.6667C13.6673 14.1394 12.4734 15.3334 11.0007 15.3334C9.52789 15.3334 8.33398 14.1394 8.33398 12.6667C8.33398 12.4143 8.36906 12.17 8.4346 11.9386L4.89555 9.87631C4.41227 10.3644 3.74176 10.6667 3.00065 10.6667C1.52789 10.6667 0.333984 9.47278 0.333984 8.00002C0.333984 6.52726 1.52789 5.33335 3.00065 5.33335C3.74162 5.33335 4.41201 5.63556 4.89527 6.12345L8.43375 4.05847C8.36876 3.82792 8.33398 3.5847 8.33398 3.33335Z" fill="white"/>
<path d="M8.33398 3.33335C8.33398 1.86059 9.52789 0.666687 11.0007 0.666687C12.4734 0.666687 13.6673 1.86059 13.6673 3.33335C13.6673 4.80611 12.4734 6.00002 11.0007 6.00002C10.2597 6.00002 9.58929 5.69781 9.10602 5.20992L5.56755 7.27489C5.63254 7.50545 5.66732 7.74867 5.66732 8.00002C5.66732 8.25123 5.63258 8.49432 5.56765 8.72476L9.1082 10.7879C9.59131 10.3013 10.2608 10 11.0007 10C12.4734 10 13.6673 11.1939 13.6673 12.6667C13.6673 14.1394 12.4734 15.3334 11.0007 15.3334C9.52789 15.3334 8.33398 14.1394 8.33398 12.6667C8.33398 12.4143 8.36906 12.17 8.4346 11.9386L4.89555 9.87631C4.41227 10.3644 3.74176 10.6667 3.00065 10.6667C1.52789 10.6667 0.333984 9.47278 0.333984 8.00002C0.333984 6.52726 1.52789 5.33335 3.00065 5.33335C3.74162 5.33335 4.41201 5.63556 4.89527 6.12345L8.43375 4.05847C8.36876 3.82792 8.33398 3.5847 8.33398 3.33335Z" fill="black" fill-opacity="0.3"/>
</svg>
