<svg width="16" height="14" viewBox="0 0 16 14" fill="none" xmlns="http://www.w3.org/2000/svg">
<path d="M5.69758 12.1783C7.297 12.8879 9.20197 12.8494 10.8333 11.9075C13.5436 10.3427 14.4722 6.87704 12.9074 4.16672L12.7408 3.87804M3.09217 9.83347C1.52737 7.12314 2.45599 3.65746 5.16632 2.09265C6.79764 1.15081 8.70261 1.11227 10.302 1.82185M1.66211 9.88923L3.48348 10.3773L3.97151 8.5559M12.0283 5.44393L12.5163 3.62256L14.3377 4.1106" stroke="white" stroke-width="1.5" stroke-linecap="round" stroke-linejoin="round"/>
<path d="M5.69758 12.1783C7.297 12.8879 9.20197 12.8494 10.8333 11.9075C13.5436 10.3427 14.4722 6.87704 12.9074 4.16672L12.7408 3.87804M3.09217 9.83347C1.52737 7.12314 2.45599 3.65746 5.16632 2.09265C6.79764 1.15081 8.70261 1.11227 10.302 1.82185M1.66211 9.88923L3.48348 10.3773L3.97151 8.5559M12.0283 5.44393L12.5163 3.62256L14.3377 4.1106" stroke="black" stroke-opacity="0.3" stroke-width="1.5" stroke-linecap="round" stroke-linejoin="round"/>
</svg>
