<svg width="12" height="15" viewBox="0 0 12 15" fill="none" xmlns="http://www.w3.org/2000/svg">
<path fill-rule="evenodd" clip-rule="evenodd" d="M5.80949 0.0825538C5.93596 0.0642789 6.0644 0.0642789 6.19087 0.0825538C6.33662 0.103615 6.47224 0.154851 6.57993 0.195535L6.60879 0.20641L10.2704 1.57942C10.6823 1.73319 11.044 1.86823 11.3225 2.11371C11.5662 2.32846 11.7539 2.59932 11.8694 2.90288C12.0015 3.24989 12.0009 3.63597 12.0003 4.0756L12.0002 7.35685C12.0002 9.24126 10.9753 10.8123 9.86747 11.9665C8.7522 13.1283 7.47618 13.949 6.80144 14.3426L6.77412 14.3586C6.65099 14.4309 6.49117 14.5248 6.27975 14.5701C6.10678 14.6072 5.89357 14.6072 5.7206 14.5701C5.50919 14.5248 5.34937 14.4309 5.22624 14.3586L5.19891 14.3426C4.52417 13.949 3.24815 13.1283 2.13288 11.9665C1.02504 10.8123 0.000176554 9.24127 0.000176554 7.35685L8.7147e-05 4.0756C-0.00054951 3.63597 -0.00110869 3.24989 0.130937 2.90288C0.246451 2.59932 0.434159 2.32846 0.677835 2.11371C0.956383 1.86823 1.31808 1.73319 1.72994 1.57942L5.39156 0.206411L5.42042 0.195536C5.52811 0.154852 5.66373 0.103616 5.80949 0.0825538ZM8.8049 5.82834C9.06525 5.56799 9.06525 5.14588 8.8049 4.88553C8.54455 4.62518 8.12244 4.62518 7.86209 4.88553L5.3335 7.41412L4.47157 6.5522C4.21122 6.29185 3.78911 6.29185 3.52876 6.5522C3.26841 6.81254 3.26841 7.23465 3.52876 7.495L4.86209 8.82834C5.12244 9.08869 5.54455 9.08869 5.8049 8.82834L8.8049 5.82834Z" fill="white"/>
<path fill-rule="evenodd" clip-rule="evenodd" d="M5.80949 0.0825538C5.93596 0.0642789 6.0644 0.0642789 6.19087 0.0825538C6.33662 0.103615 6.47224 0.154851 6.57993 0.195535L6.60879 0.20641L10.2704 1.57942C10.6823 1.73319 11.044 1.86823 11.3225 2.11371C11.5662 2.32846 11.7539 2.59932 11.8694 2.90288C12.0015 3.24989 12.0009 3.63597 12.0003 4.0756L12.0002 7.35685C12.0002 9.24126 10.9753 10.8123 9.86747 11.9665C8.7522 13.1283 7.47618 13.949 6.80144 14.3426L6.77412 14.3586C6.65099 14.4309 6.49117 14.5248 6.27975 14.5701C6.10678 14.6072 5.89357 14.6072 5.7206 14.5701C5.50919 14.5248 5.34937 14.4309 5.22624 14.3586L5.19891 14.3426C4.52417 13.949 3.24815 13.1283 2.13288 11.9665C1.02504 10.8123 0.000176554 9.24127 0.000176554 7.35685L8.7147e-05 4.0756C-0.00054951 3.63597 -0.00110869 3.24989 0.130937 2.90288C0.246451 2.59932 0.434159 2.32846 0.677835 2.11371C0.956383 1.86823 1.31808 1.73319 1.72994 1.57942L5.39156 0.206411L5.42042 0.195536C5.52811 0.154852 5.66373 0.103616 5.80949 0.0825538ZM8.8049 5.82834C9.06525 5.56799 9.06525 5.14588 8.8049 4.88553C8.54455 4.62518 8.12244 4.62518 7.86209 4.88553L5.3335 7.41412L4.47157 6.5522C4.21122 6.29185 3.78911 6.29185 3.52876 6.5522C3.26841 6.81254 3.26841 7.23465 3.52876 7.495L4.86209 8.82834C5.12244 9.08869 5.54455 9.08869 5.8049 8.82834L8.8049 5.82834Z" fill="black" fill-opacity="0.3"/>
</svg>
