<svg width="16" height="16" viewBox="0 0 16 16" fill="none" xmlns="http://www.w3.org/2000/svg">
<path fill-rule="evenodd" clip-rule="evenodd" d="M7.99935 0.387207C3.94926 0.387207 0.666016 3.67045 0.666016 7.72054C0.666016 11.7706 3.94926 15.0539 7.99935 15.0539C12.0494 15.0539 15.3327 11.7706 15.3327 7.72054C15.3327 3.67045 12.0494 0.387207 7.99935 0.387207ZM4.86128 7.24914L7.52794 4.58247C7.78829 4.32212 8.2104 4.32212 8.47075 4.58247L11.1374 7.24914C11.3978 7.50949 11.3978 7.9316 11.1374 8.19194C10.8771 8.45229 10.455 8.45229 10.1946 8.19194L8.66602 6.66335V10.3872C8.66602 10.7554 8.36754 11.0539 7.99935 11.0539C7.63116 11.0539 7.33268 10.7554 7.33268 10.3872V6.66335L5.80409 8.19194C5.54374 8.45229 5.12163 8.45229 4.86128 8.19194C4.60093 7.9316 4.60093 7.50949 4.86128 7.24914Z" fill="white"/>
<path fill-rule="evenodd" clip-rule="evenodd" d="M7.99935 0.387207C3.94926 0.387207 0.666016 3.67045 0.666016 7.72054C0.666016 11.7706 3.94926 15.0539 7.99935 15.0539C12.0494 15.0539 15.3327 11.7706 15.3327 7.72054C15.3327 3.67045 12.0494 0.387207 7.99935 0.387207ZM4.86128 7.24914L7.52794 4.58247C7.78829 4.32212 8.2104 4.32212 8.47075 4.58247L11.1374 7.24914C11.3978 7.50949 11.3978 7.9316 11.1374 8.19194C10.8771 8.45229 10.455 8.45229 10.1946 8.19194L8.66602 6.66335V10.3872C8.66602 10.7554 8.36754 11.0539 7.99935 11.0539C7.63116 11.0539 7.33268 10.7554 7.33268 10.3872V6.66335L5.80409 8.19194C5.54374 8.45229 5.12163 8.45229 4.86128 8.19194C4.60093 7.9316 4.60093 7.50949 4.86128 7.24914Z" fill="black" fill-opacity="0.3"/>
</svg>
