<svg width="14" height="15" viewBox="0 0 14 15" fill="none" xmlns="http://www.w3.org/2000/svg">
<path d="M8.32744 0.963993C8.36415 0.670328 8.20286 0.387615 7.93139 0.269769C7.65991 0.151923 7.34324 0.227158 7.15378 0.454514L1.2008 7.59808C1.09792 7.72149 0.993722 7.84648 0.917855 7.95632C0.846105 8.06021 0.715099 8.26446 0.711051 8.53289C0.706417 8.84021 0.843358 9.13258 1.08241 9.32576C1.29122 9.4945 1.532 9.52461 1.65773 9.536C1.79068 9.54803 1.95341 9.548 2.11407 9.54797L6.24407 9.54797L5.67107 14.1319C5.63436 14.4256 5.79565 14.7083 6.06713 14.8262C6.33861 14.944 6.65527 14.8688 6.84474 14.6414L12.7977 7.49786C12.9006 7.37446 13.0048 7.24946 13.0807 7.13962C13.1524 7.03573 13.2834 6.83148 13.2875 6.56305C13.2921 6.25573 13.1552 5.96336 12.9161 5.77018C12.7073 5.60145 12.4665 5.57133 12.3408 5.55994C12.2078 5.54791 12.0451 5.54794 11.8844 5.54797L7.75445 5.54797L8.32744 0.963993Z" fill="white"/>
<path d="M8.32744 0.963993C8.36415 0.670328 8.20286 0.387615 7.93139 0.269769C7.65991 0.151923 7.34324 0.227158 7.15378 0.454514L1.2008 7.59808C1.09792 7.72149 0.993722 7.84648 0.917855 7.95632C0.846105 8.06021 0.715099 8.26446 0.711051 8.53289C0.706417 8.84021 0.843358 9.13258 1.08241 9.32576C1.29122 9.4945 1.532 9.52461 1.65773 9.536C1.79068 9.54803 1.95341 9.548 2.11407 9.54797L6.24407 9.54797L5.67107 14.1319C5.63436 14.4256 5.79565 14.7083 6.06713 14.8262C6.33861 14.944 6.65527 14.8688 6.84474 14.6414L12.7977 7.49786C12.9006 7.37446 13.0048 7.24946 13.0807 7.13962C13.1524 7.03573 13.2834 6.83148 13.2875 6.56305C13.2921 6.25573 13.1552 5.96336 12.9161 5.77018C12.7073 5.60145 12.4665 5.57133 12.3408 5.55994C12.2078 5.54791 12.0451 5.54794 11.8844 5.54797L7.75445 5.54797L8.32744 0.963993Z" fill="black" fill-opacity="0.3"/>
</svg>
