<svg width="16" height="14" viewBox="0 0 16 14" fill="none" xmlns="http://www.w3.org/2000/svg">
<path fill-rule="evenodd" clip-rule="evenodd" d="M12.0191 9.25589C12.1109 8.89932 12.4743 8.68467 12.8309 8.77644C14.2685 9.14644 15.3314 10.4506 15.3314 12.0047V13.3381C15.3314 13.7062 15.0329 14.0047 14.6647 14.0047C14.2965 14.0047 13.9981 13.7062 13.9981 13.3381V12.0047C13.9981 11.0737 13.3613 10.2897 12.4986 10.0677C12.142 9.97591 11.9273 9.61246 12.0191 9.25589Z" fill="#3BF062"/>
<path fill-rule="evenodd" clip-rule="evenodd" d="M9.71344 1.28175C9.85159 0.94046 10.2403 0.775784 10.5815 0.913934C11.8019 1.40793 12.6647 2.60476 12.6647 4.00472C12.6647 5.40468 11.8019 6.60151 10.5815 7.09551C10.2403 7.23366 9.85159 7.06898 9.71344 6.72769C9.57529 6.3864 9.73997 5.99774 10.0813 5.85959C10.8154 5.5624 11.3314 4.84301 11.3314 4.00472C11.3314 3.16643 10.8154 2.44704 10.0813 2.14985C9.73997 2.0117 9.57529 1.62304 9.71344 1.28175Z" fill="#3BF062"/>
<path fill-rule="evenodd" clip-rule="evenodd" d="M4.78403 8.67136C5.81561 8.6717 6.8472 8.6717 7.87878 8.67136C8.60586 8.67112 9.10199 8.67096 9.52747 8.78497C10.6778 9.09319 11.5763 9.99168 11.8845 11.142C12.038 11.7149 11.9935 12.3271 11.9982 12.9141C11.9988 12.9854 11.9999 13.1295 11.964 13.2635C11.8715 13.6086 11.602 13.8782 11.2569 13.9706C11.1229 14.0066 10.9787 14.0054 10.9075 14.0048C7.85746 13.9805 4.80535 13.9805 1.75534 14.0048C1.68407 14.0054 1.53993 14.0066 1.40592 13.9706C1.06083 13.8782 0.791279 13.6086 0.698812 13.2635C0.662904 13.1295 0.664054 12.9854 0.664622 12.9141C0.66929 12.3286 0.625061 11.714 0.778319 11.142C1.08654 9.99168 1.98503 9.09319 3.13534 8.78497C3.56082 8.67096 4.05695 8.67112 4.78403 8.67136Z" fill="#3BF062"/>
<path fill-rule="evenodd" clip-rule="evenodd" d="M2.99807 4.00472C2.99807 2.16377 4.49046 0.671387 6.3314 0.671387C8.17235 0.671387 9.66474 2.16377 9.66474 4.00472C9.66474 5.84567 8.17235 7.33805 6.3314 7.33805C4.49046 7.33805 2.99807 5.84567 2.99807 4.00472Z" fill="#3BF062"/>
</svg>
