<svg width="16" height="16" viewBox="0 0 16 16" fill="none" xmlns="http://www.w3.org/2000/svg">
<path fill-rule="evenodd" clip-rule="evenodd" d="M8.84781 0.447323C8.29819 0.0644343 7.56825 0.0644339 7.01864 0.447323L5.64935 1.40124C5.45976 1.53332 5.24381 1.62276 5.01636 1.66343L3.37361 1.95714C2.71423 2.07503 2.19808 2.59118 2.08019 3.25056L1.78648 4.89332C1.74581 5.12077 1.65636 5.33671 1.52429 5.5263L0.57037 6.89559C0.187481 7.4452 0.187481 8.17515 0.570369 8.72476L1.52429 10.0941C1.65636 10.2836 1.74581 10.4996 1.78648 10.727L2.08019 12.3698C2.19808 13.0292 2.71423 13.5453 3.37361 13.6632L5.01636 13.9569C5.24381 13.9976 5.45976 14.087 5.64935 14.2191L7.01864 15.173C7.56825 15.5559 8.29819 15.5559 8.84781 15.173L10.2171 14.2191C10.4067 14.087 10.6226 13.9976 10.8501 13.9569L12.4928 13.6632C13.1522 13.5453 13.6684 13.0292 13.7863 12.3698L14.08 10.727C14.1206 10.4996 14.2101 10.2836 14.3422 10.0941L15.2961 8.72476C15.679 8.17515 15.679 7.4452 15.2961 6.89559L14.3422 5.5263C14.2101 5.33671 14.1206 5.12077 14.08 4.89332L13.7863 3.25056C13.6684 2.59118 13.1522 2.07503 12.4928 1.95714L10.8501 1.66343C10.6226 1.62276 10.4067 1.53332 10.2171 1.40124L8.84781 0.447323ZM11.5571 5.83501C11.7914 5.60069 11.7914 5.22079 11.5571 4.98648C11.3228 4.75216 10.9429 4.75216 10.7085 4.98648L6.73281 8.96221L5.15708 7.38648C4.92276 7.15216 4.54286 7.15216 4.30855 7.38648C4.07423 7.62079 4.07423 8.00069 4.30855 8.23501L6.30855 10.235C6.54286 10.4693 6.92276 10.4693 7.15708 10.235L11.5571 5.83501Z" fill="white"/>
<path fill-rule="evenodd" clip-rule="evenodd" d="M8.84781 0.447323C8.29819 0.0644343 7.56825 0.0644339 7.01864 0.447323L5.64935 1.40124C5.45976 1.53332 5.24381 1.62276 5.01636 1.66343L3.37361 1.95714C2.71423 2.07503 2.19808 2.59118 2.08019 3.25056L1.78648 4.89332C1.74581 5.12077 1.65636 5.33671 1.52429 5.5263L0.57037 6.89559C0.187481 7.4452 0.187481 8.17515 0.570369 8.72476L1.52429 10.0941C1.65636 10.2836 1.74581 10.4996 1.78648 10.727L2.08019 12.3698C2.19808 13.0292 2.71423 13.5453 3.37361 13.6632L5.01636 13.9569C5.24381 13.9976 5.45976 14.087 5.64935 14.2191L7.01864 15.173C7.56825 15.5559 8.29819 15.5559 8.84781 15.173L10.2171 14.2191C10.4067 14.087 10.6226 13.9976 10.8501 13.9569L12.4928 13.6632C13.1522 13.5453 13.6684 13.0292 13.7863 12.3698L14.08 10.727C14.1206 10.4996 14.2101 10.2836 14.3422 10.0941L15.2961 8.72476C15.679 8.17515 15.679 7.4452 15.2961 6.89559L14.3422 5.5263C14.2101 5.33671 14.1206 5.12077 14.08 4.89332L13.7863 3.25056C13.6684 2.59118 13.1522 2.07503 12.4928 1.95714L10.8501 1.66343C10.6226 1.62276 10.4067 1.53332 10.2171 1.40124L8.84781 0.447323ZM11.5571 5.83501C11.7914 5.60069 11.7914 5.22079 11.5571 4.98648C11.3228 4.75216 10.9429 4.75216 10.7085 4.98648L6.73281 8.96221L5.15708 7.38648C4.92276 7.15216 4.54286 7.15216 4.30855 7.38648C4.07423 7.62079 4.07423 8.00069 4.30855 8.23501L6.30855 10.235C6.54286 10.4693 6.92276 10.4693 7.15708 10.235L11.5571 5.83501Z" fill="black" fill-opacity="0.3"/>
</svg>
