<svg width="28" height="28" viewBox="0 0 28 28" fill="none" xmlns="http://www.w3.org/2000/svg">
<rect x="0.4375" y="0.4375" width="27.125" height="27.125" rx="6.5625" stroke="#111113" stroke-width="0.875"/>
<rect x="0.4375" y="0.4375" width="27.125" height="27.125" rx="6.5625" stroke="white" stroke-opacity="0.1" stroke-width="0.875"/>
<path d="M21.7723 9.61824C21.7222 9.52299 21.6553 9.43945 21.5755 9.3724C21.4957 9.30535 21.4045 9.25611 21.3071 9.22751C21.2098 9.1989 21.1082 9.1915 21.0082 9.20571C20.9082 9.21993 20.8118 9.25548 20.7244 9.31034L14.8696 12.9692L10.1665 10.0044L15.2504 6.82666C15.3418 6.77429 15.4226 6.7024 15.4879 6.61528C15.5532 6.52817 15.6017 6.42761 15.6305 6.31963C15.6593 6.21164 15.6678 6.09845 15.6555 5.98681C15.6432 5.87516 15.6104 5.76737 15.5589 5.66987C15.5074 5.57236 15.4385 5.48715 15.3561 5.41932C15.2737 5.35149 15.1795 5.30244 15.0793 5.2751C14.9791 5.24776 14.8749 5.24269 14.7728 5.2602C14.6708 5.2777 14.573 5.31742 14.4854 5.37698L8.24748 9.27699C8.22019 9.29415 8.19382 9.31299 8.16851 9.33343C8.1449 9.35231 8.12282 9.37334 8.1025 9.3963L8.08599 9.41298C8.06949 9.43222 8.05417 9.45146 8.03884 9.47199L8.0247 9.49123C8.00607 9.51801 7.98876 9.54585 7.97284 9.57462C7.95783 9.60365 7.94444 9.63364 7.93276 9.66442C7.9295 9.67189 7.92674 9.67961 7.92451 9.68752C7.91542 9.71184 7.90755 9.73667 7.90093 9.76192C7.90041 9.76961 7.90041 9.77733 7.90093 9.78502C7.89278 9.81611 7.88687 9.84785 7.88325 9.87995V9.87995C7.87949 9.91401 7.87752 9.94828 7.87736 9.98258V17.8981C7.86906 18.0131 7.88271 18.1287 7.91746 18.2377C7.9522 18.3467 8.00728 18.4467 8.07923 18.5314C8.15119 18.6161 8.23847 18.6836 8.33558 18.7299C8.43269 18.7761 8.53754 18.8 8.64354 18.8C8.74953 18.8 8.85438 18.7761 8.95149 18.7299C9.04861 18.6836 9.13588 18.6161 9.20784 18.5314C9.2798 18.4467 9.33488 18.3467 9.36962 18.2377C9.40436 18.1287 9.41801 18.0131 9.40972 17.8981V11.4515L14.1011 14.4214V21.8481C14.0928 21.9631 14.1065 22.0787 14.1412 22.1877C14.1759 22.2967 14.231 22.3967 14.303 22.4814C14.3749 22.5661 14.4622 22.6337 14.5593 22.6799C14.6564 22.7261 14.7613 22.75 14.8673 22.75C14.9733 22.75 15.0781 22.7261 15.1752 22.6799C15.2723 22.6337 15.3596 22.5661 15.4316 22.4814C15.5035 22.3967 15.5586 22.2967 15.5934 22.1877C15.6281 22.0787 15.6418 21.9631 15.6335 21.8481V14.4214L21.4871 10.7626C21.575 10.708 21.6522 10.6351 21.7142 10.548C21.7761 10.4608 21.8217 10.3613 21.8482 10.2549C21.8747 10.1486 21.8816 10.0376 21.8686 9.92834C21.8556 9.81908 21.8229 9.7137 21.7723 9.61824V9.61824Z" fill="white"/>
</svg>