<svg width="126" height="32" viewBox="0 0 126 32" fill="none" xmlns="http://www.w3.org/2000/svg">
<g clip-path="url(#clip0_468_7860)">
<path d="M17.0757 18.4214L15.5449 22.6288C15.4798 22.7538 15.4798 22.8839 15.5449 23.009L18.2214 30.2731L21.2781 28.4871L17.581 18.4214C17.521 18.1663 17.2008 18.1663 17.0757 18.4214Z" fill="white"/>
<path d="M20.1329 11.2873C20.0679 11.0322 19.7527 11.0322 19.6226 11.2873L18.0917 15.4947C18.0267 15.6197 18.0267 15.7498 18.0917 15.8749L22.4242 27.7916L25.4809 26.0056L20.1329 11.2873Z" fill="white"/>
<path d="M14.6547 2.0471C14.7197 2.0471 14.7798 2.0471 14.8448 2.11213L26.5664 8.86594C26.6915 8.93097 26.7565 9.05604 26.7565 9.24615V22.7538C26.7565 22.8788 26.6915 23.0739 26.5664 23.134L14.8448 29.8878C14.7798 29.9528 14.7197 29.9528 14.6547 29.9528C14.5896 29.9528 14.5296 29.9528 14.4646 29.8878L2.74298 23.134C2.6179 23.0689 2.55287 22.9439 2.55287 22.7538V9.24615C2.55287 9.12108 2.6179 8.92597 2.74298 8.86594L14.4646 2.11213C14.5246 2.0471 14.5896 2.0471 14.6547 2.0471ZM14.6547 0.0709839C14.2094 0.0709839 13.8242 0.196054 13.444 0.391164L1.7224 7.14497C0.956969 7.59022 0.511719 8.35565 0.511719 9.24615V22.7538C0.511719 23.5842 0.956969 24.4097 1.7224 24.8549L13.444 31.6087C13.8242 31.7988 14.2094 31.9289 14.6547 31.9289C15.0999 31.9289 15.4852 31.8039 15.8654 31.6087L27.587 24.8549C28.3524 24.4097 28.7976 23.6443 28.7976 22.7538V9.24615C28.7976 8.41568 28.3524 7.59022 27.587 7.14497L15.9254 0.391164C15.5452 0.201057 15.16 0.0709839 14.7147 0.0709839H14.6547Z" fill="white"/>
<path d="M13.6998 8.29065H10.7031C10.513 8.29065 10.2578 8.41572 10.1928 8.61083L3.82422 26.0657L6.88094 27.8517L13.8899 8.67086C13.9549 8.48076 13.8249 8.29065 13.6347 8.29065H13.6998Z" fill="white"/>
<path d="M18.8579 8.29069H15.8612C15.6711 8.29069 15.4159 8.41576 15.3509 8.61087L8.0918 28.4871L11.1485 30.2731L19.048 8.61087C19.113 8.42076 18.9829 8.23065 18.7928 8.23065L18.8579 8.29069Z" fill="white"/>
<path d="M41.4146 11.9227C41.7348 11.9227 41.9899 11.9878 42.18 12.1128C42.3701 12.2379 42.5602 12.4931 42.7553 12.8132L46.6425 19.8222C46.7076 19.8872 46.7076 19.9472 46.6425 20.0123C46.6425 20.0773 46.5775 20.0773 46.4524 20.0773H44.9866C44.8615 20.0773 44.7965 20.0123 44.7315 19.9523L43.896 18.4214H38.4179L37.5874 19.9523C37.5224 20.0773 37.4624 20.0773 37.3323 20.0773H35.8014C35.6764 20.0773 35.6113 20.0773 35.6113 20.0123C35.6113 19.9472 35.6113 19.8872 35.6113 19.8222L39.4335 12.8132C39.6236 12.433 39.8137 12.2379 40.0088 12.1128C40.2039 11.9878 40.389 11.9227 40.6442 11.9227H41.3446H41.4146ZM39.1183 17.0856H43.1306L41.2845 13.6437C41.2195 13.5787 41.2195 13.5787 41.1595 13.5787H41.0944C41.0294 13.5787 40.9693 13.5787 40.9693 13.6437L39.1183 17.0856Z" fill="white"/>
<path d="M55.1118 11.9227C56.0023 11.9227 56.6426 12.1128 57.0228 12.5581C57.4031 12.9383 57.5982 13.5787 57.5982 14.3441V14.9795C57.5982 15.6798 57.4731 16.1901 57.218 16.5703C56.9628 16.9506 56.5176 17.2057 55.8822 17.3358L57.8583 19.8222C57.9234 19.8872 57.9234 19.9472 57.9234 20.0123C57.9234 20.0773 57.8583 20.1374 57.7332 20.1374H56.2024C56.0773 20.1374 56.0123 20.1374 56.0123 20.0723C55.9472 20.0723 55.9472 20.0073 55.8872 19.9472L54.0412 17.5259H50.2841V19.8822C50.2841 20.0723 50.219 20.1374 50.0289 20.1374H48.7532C48.5631 20.1374 48.498 20.0723 48.498 19.8822V12.3029C48.498 12.0478 48.6231 11.9227 48.8783 11.9227H55.1868H55.1118ZM50.269 16.1251H54.7266C55.1068 16.1251 55.4269 16.0601 55.557 15.87C55.7471 15.6798 55.8122 15.4247 55.8122 15.1045V14.5942C55.8122 14.214 55.7471 13.9589 55.557 13.8288C55.3669 13.6387 55.1118 13.5737 54.7266 13.5737H50.3941C50.269 13.5737 50.269 13.6387 50.269 13.6987V16.1251Z" fill="white"/>
<path d="M67.4097 11.9227C68.2401 11.9227 68.8105 12.1128 69.1306 12.433C69.4508 12.7532 69.6409 13.2635 69.6409 13.8988V14.4742C69.6409 15.1095 69.3858 15.6198 68.8755 15.94C69.3858 16.2602 69.706 16.7705 69.706 17.4709V18.1712C69.706 18.4914 69.6409 18.7466 69.5809 19.0017C69.5209 19.2569 69.3908 19.447 69.2607 19.6371C69.0706 19.8272 68.8805 19.9573 68.6254 20.0173C68.3702 20.0823 68.05 20.1424 67.6698 20.1424H60.7259C60.4708 20.1424 60.3457 20.0173 60.3457 19.7621V12.3079C60.3457 12.0528 60.4708 11.9277 60.7259 11.9277H67.4797H67.4097V11.9227ZM62.1217 15.2996H66.8994C67.2796 15.2996 67.5347 15.2346 67.6648 15.1095C67.7949 14.9845 67.8549 14.8544 67.8549 14.5992V14.219C67.8549 13.9639 67.7899 13.7738 67.6648 13.7087C67.5398 13.5837 67.2846 13.5186 67.0295 13.5186H62.2518C62.1267 13.5186 62.1267 13.5837 62.1267 13.6437V15.2996H62.1217ZM62.1217 16.5753V18.2963C62.1217 18.4214 62.1867 18.4214 62.2468 18.4214H67.0245C67.3446 18.4214 67.5347 18.3564 67.6598 18.2313C67.7849 18.1062 67.8499 17.9111 67.8499 17.721V17.2757C67.8499 17.0206 67.7849 16.8305 67.6598 16.7004C67.5347 16.5703 67.2796 16.5103 66.8294 16.5103H62.0567L62.1217 16.5753Z" fill="white"/>
<path d="M74.0328 11.9227C74.2229 11.9227 74.288 11.9878 74.288 12.1779V19.8222C74.288 20.0123 74.2229 20.0773 74.0328 20.0773H72.7571C72.567 20.0773 72.502 20.0123 72.502 19.8222V12.1779C72.502 11.9878 72.567 11.9227 72.7571 11.9227H74.0328Z" fill="white"/>
<path d="M86.3298 11.9227C86.5199 11.9227 86.585 11.9878 86.585 12.1779V13.3235C86.585 13.5136 86.5199 13.5787 86.3298 13.5787H82.6328V19.8222C82.6328 20.0123 82.5677 20.0773 82.3776 20.0773H81.1019C80.9118 20.0773 80.8468 20.0123 80.8468 19.8222V13.5787H77.1497C76.9596 13.5787 76.8945 13.5136 76.8945 13.3235V12.1779C76.8945 11.9878 76.9596 11.9227 77.1497 11.9227H86.2598H86.3298Z" fill="white"/>
<path d="M95.5708 11.9227C96.4613 11.9227 97.1016 12.1128 97.4818 12.5581C97.862 12.9383 98.0572 13.5787 98.0572 14.3441V14.9795C98.0572 15.6798 97.9321 16.1901 97.6769 16.5703C97.4218 16.9506 96.9766 17.2057 96.3412 17.3358L98.3173 19.8222C98.3823 19.8872 98.3823 19.9472 98.3823 20.0123C98.3823 20.0773 98.3173 20.1374 98.1922 20.1374H96.6614C96.5363 20.1374 96.4713 20.1374 96.4713 20.0723C96.4062 20.0723 96.4062 20.0073 96.3462 19.9472L94.5002 17.5259H90.743V19.8822C90.743 20.0723 90.678 20.1374 90.4879 20.1374H89.2122C89.0221 20.1374 88.957 20.0723 88.957 19.8822V12.3029C88.957 12.0478 89.0821 11.9227 89.3373 11.9227H95.6458H95.5708ZM90.728 16.1251H95.1855C95.5658 16.1251 95.8859 16.0601 96.016 15.87C96.2061 15.6798 96.2712 15.4247 96.2712 15.1045V14.5942C96.2712 14.214 96.2061 13.9589 96.016 13.8288C95.8259 13.6387 95.5708 13.5737 95.1855 13.5737H90.8531C90.728 13.5737 90.728 13.6387 90.728 13.6987V16.1251Z" fill="white"/>
<path d="M102.134 11.9227C102.325 11.9227 102.39 11.9878 102.39 12.1779V16.8305C102.39 17.1507 102.39 17.4058 102.455 17.5959C102.52 17.786 102.58 17.9761 102.71 18.1062C102.84 18.2363 102.965 18.2963 103.155 18.3614C103.345 18.4264 103.6 18.4264 103.92 18.4264H107.172C107.492 18.4264 107.748 18.4264 107.938 18.3614C108.128 18.2963 108.318 18.2363 108.383 18.1062C108.508 17.9811 108.573 17.786 108.638 17.5959C108.703 17.4058 108.703 17.1507 108.703 16.8305V12.1779C108.703 11.9878 108.768 11.9227 108.958 11.9227H110.234C110.424 11.9227 110.489 11.9878 110.489 12.1779V17.0206C110.489 17.5959 110.424 18.0412 110.299 18.4214C110.174 18.8016 109.979 19.1218 109.724 19.3769C109.469 19.6321 109.148 19.8222 108.703 19.8872C108.258 20.0123 107.813 20.0773 107.172 20.0773H103.795C103.22 20.0773 102.71 20.0123 102.265 19.8872C101.884 19.7621 101.499 19.567 101.244 19.3769C100.989 19.1218 100.799 18.8016 100.669 18.4214C100.544 18.0412 100.479 17.5309 100.479 17.0206V12.1779C100.479 11.9878 100.544 11.9227 100.734 11.9227H102.009H102.134Z" fill="white"/>
<path d="M115.511 11.9227C115.701 11.9227 115.831 11.9227 115.956 11.9878C116.081 11.9878 116.211 12.0528 116.276 12.1128C116.341 12.1779 116.466 12.2379 116.531 12.368C116.596 12.4931 116.656 12.6231 116.786 12.8132L119.208 18.4214C119.273 18.4864 119.273 18.5465 119.398 18.5465H119.523C119.588 18.5465 119.648 18.4814 119.713 18.4214L122.134 12.8132C122.199 12.6231 122.259 12.4931 122.389 12.368C122.454 12.2429 122.515 12.1779 122.645 12.1128C122.71 12.0478 122.835 11.9878 122.965 11.9878C123.095 11.9878 123.22 11.9227 123.41 11.9227H124.686C125.066 11.9227 125.386 11.9878 125.516 12.1779C125.641 12.368 125.706 12.6882 125.706 13.1334V19.8222C125.706 20.0123 125.641 20.0773 125.451 20.0773H124.24C124.05 20.0773 123.985 20.0123 123.985 19.8222V13.7087C123.985 13.6437 123.92 13.5837 123.92 13.5837H123.795C123.73 13.5837 123.67 13.6487 123.67 13.6487L121.314 18.8716C121.249 19.0617 121.124 19.2519 120.994 19.3819C120.864 19.512 120.804 19.6371 120.673 19.7621C120.548 19.8272 120.418 19.9523 120.293 19.9523C120.168 20.0173 119.973 20.0173 119.783 20.0173H119.208C119.018 20.0173 118.827 20.0173 118.697 19.9523C118.567 19.8872 118.442 19.8272 118.317 19.7621C118.192 19.6971 118.127 19.572 117.997 19.3819C117.872 19.2569 117.807 19.0617 117.677 18.8716L115.32 13.6487C115.32 13.5837 115.255 13.5837 115.195 13.5837H115.07C115.005 13.5837 115.005 13.6487 115.005 13.7087V19.8272C115.005 20.0173 114.94 20.0823 114.75 20.0823H113.534C113.344 20.0823 113.279 20.0173 113.279 19.8272V13.1334C113.279 12.6882 113.344 12.368 113.469 12.1779C113.594 11.9878 113.915 11.9227 114.3 11.9227H115.576H115.511Z" fill="white"/>
</g>
<defs>
<clipPath id="clip0_468_7860">
<rect width="125.07" height="31.8679" fill="white" transform="translate(0.572266 0.065979)"/>
</clipPath>
</defs>
</svg>
