<svg width="124" height="19" viewBox="0 0 124 19" fill="none" xmlns="http://www.w3.org/2000/svg">
<mask id="mask0_468_7777" style="mask-type:luminance" maskUnits="userSpaceOnUse" x="0" y="0" width="124" height="19">
<path d="M123.168 0.12677H0.00195312V18.5537H123.168V0.12677Z" fill="white"/>
</mask>
<g mask="url(#mask0_468_7777)">
<path d="M20.6943 14.6552L17.3158 18.3022C17.2427 18.3814 17.1542 18.4447 17.0558 18.4879C16.9574 18.5312 16.8512 18.5536 16.7438 18.5537H0.728474C0.65209 18.5536 0.577374 18.5312 0.513477 18.489C0.449581 18.4469 0.399278 18.3869 0.368725 18.3164C0.338172 18.2459 0.328696 18.168 0.341459 18.0922C0.354221 18.0164 0.388666 17.9459 0.440578 17.8895L3.81524 14.2425C3.88832 14.1633 3.97681 14.1001 4.07523 14.0568C4.17362 14.0136 4.27984 13.9912 4.38722 13.9911H20.4026C20.4796 13.9895 20.5555 14.0109 20.6205 14.0526C20.6855 14.0942 20.737 14.1544 20.7681 14.2253C20.7993 14.2963 20.8089 14.375 20.7957 14.4515C20.7826 14.528 20.7473 14.5989 20.6943 14.6552ZM17.3158 7.30939C17.2425 7.23054 17.1539 7.16758 17.0556 7.12433C16.9572 7.08111 16.8511 7.05851 16.7438 7.05796H0.728474C0.65209 7.058 0.577374 7.08045 0.513477 7.1226C0.449581 7.16474 0.399278 7.22472 0.368725 7.2952C0.338172 7.36569 0.328696 7.4436 0.341459 7.51942C0.354221 7.59524 0.388666 7.66568 0.440578 7.72209L3.81524 11.371C3.88859 11.4499 3.97715 11.5128 4.07549 11.5561C4.17383 11.5993 4.27992 11.6219 4.38722 11.6224H20.4026C20.4788 11.622 20.5532 11.5993 20.6169 11.557C20.6806 11.5147 20.7305 11.4547 20.7608 11.3843C20.7911 11.3139 20.8005 11.2361 20.7875 11.1605C20.7747 11.0849 20.7404 11.0146 20.6886 10.9583L17.3158 7.30939ZM0.728474 4.68931H16.7438C16.8512 4.68921 16.9574 4.66681 17.0558 4.62355C17.1542 4.5803 17.2427 4.51707 17.3158 4.43786L20.6943 0.79087C20.7473 0.734537 20.7826 0.663668 20.7957 0.587179C20.8089 0.51069 20.7993 0.431997 20.7681 0.361004C20.737 0.29001 20.6855 0.229888 20.6205 0.188202C20.5555 0.146516 20.4796 0.125129 20.4026 0.126732H4.38722C4.27984 0.126846 4.17362 0.149232 4.07523 0.192494C3.97681 0.235756 3.88832 0.298966 3.81524 0.378183L0.440578 4.02517C0.388666 4.08158 0.354221 4.15203 0.341459 4.22785C0.328696 4.30367 0.338172 4.38158 0.368725 4.45206C0.399278 4.52254 0.449581 4.58253 0.513477 4.62466C0.577374 4.66681 0.65209 4.68927 0.728474 4.68931Z" fill="white"/>
<path d="M40.2191 7.91984H31.6509V5.07902H42.446V2.2382H31.6223C31.2524 2.23619 30.886 2.30751 30.5436 2.44811C30.2011 2.58873 29.8894 2.79586 29.6267 3.0577C29.3638 3.31954 29.1546 3.63095 29.0112 3.97413C28.8679 4.31734 28.7929 4.68561 28.791 5.05791V7.93711C28.7925 8.30974 28.8669 8.67843 29.0101 9.02206C29.1533 9.3657 29.3622 9.67756 29.6251 9.9398C29.8883 10.2021 30.2 10.4095 30.5426 10.5504C30.8852 10.6912 31.2522 10.7627 31.6223 10.7607H40.202V13.6015H28.995V16.4423H40.2191C40.589 16.4443 40.9554 16.373 41.2979 16.2324C41.6403 16.0918 41.952 15.8846 42.2147 15.6228C42.4777 15.361 42.6868 15.0496 42.8302 14.7064C42.9736 14.3632 43.0485 13.9949 43.0504 13.6226V10.7434C43.0489 10.3708 42.9745 10.0021 42.8313 9.65844C42.6882 9.3148 42.4792 9.00294 42.2163 8.7407C41.9532 8.47846 41.6414 8.27099 41.2988 8.13014C40.9562 7.98929 40.5892 7.91782 40.2191 7.91984Z" fill="white"/>
<path d="M56.8184 2.23819H48.2178C47.8474 2.23516 47.48 2.30574 47.1366 2.4459C46.7934 2.58606 46.4809 2.79302 46.2172 3.05497C45.9534 3.3169 45.7436 3.62864 45.5999 3.97234C45.4559 4.31604 45.3808 4.68494 45.3789 5.0579V13.6226C45.3808 13.9955 45.4559 14.3644 45.5999 14.7081C45.7436 15.0518 45.9534 15.3636 46.2172 15.6255C46.4809 15.8875 46.7934 16.0944 47.1366 16.2346C47.48 16.3747 47.8474 16.4453 48.2178 16.4423H56.8184C57.1883 16.4443 57.5548 16.373 57.8972 16.2324C58.2396 16.0918 58.5513 15.8846 58.8141 15.6228C59.077 15.361 59.2861 15.0495 59.4295 14.7064C59.5729 14.3632 59.6478 13.9949 59.6497 13.6226V5.0579C59.6478 4.6856 59.5729 4.31733 59.4295 3.97412C59.2861 3.63094 59.077 3.31953 58.8141 3.05769C58.5513 2.79586 58.2396 2.58873 57.8972 2.44811C57.5548 2.3075 57.1883 2.23618 56.8184 2.23819ZM56.7975 13.6015H48.2388V5.07901H56.7937L56.7975 13.6015Z" fill="white"/>
<path d="M86.9429 2.23825H78.5539C78.1841 2.23623 77.8176 2.30756 77.4752 2.44816C77.1328 2.58878 76.821 2.79591 76.5583 3.05775C76.2954 3.31958 76.0862 3.631 75.9429 3.97418C75.7995 4.31738 75.7246 4.68565 75.7227 5.05795V16.4423H78.5825V11.7761H86.9334V16.4423H89.7933V5.05795C89.7914 4.68402 89.7159 4.31418 89.5714 3.96971C89.4267 3.62526 89.216 3.313 88.951 3.05089C88.6861 2.78881 88.3723 2.58208 88.0276 2.44261C87.6829 2.30314 87.3143 2.2337 86.9429 2.23825ZM86.922 8.93529H78.5711V5.07907H86.922V8.93529Z" fill="white"/>
<path d="M120.336 2.2382H111.947C111.577 2.23619 111.21 2.30751 110.868 2.44811C110.525 2.58873 110.214 2.79586 109.951 3.0577C109.688 3.31954 109.479 3.63095 109.335 3.97413C109.192 4.31733 109.117 4.6856 109.115 5.05791V16.4423H111.975V11.7761H120.307V16.4423H123.167V5.05791C123.165 4.6856 123.09 4.31733 122.947 3.97413C122.803 3.63095 122.594 3.31954 122.331 3.0577C122.068 2.79586 121.757 2.58873 121.414 2.44811C121.072 2.30751 120.705 2.23619 120.336 2.2382ZM120.307 8.93524H111.956V5.07902H120.307V8.93524Z" fill="white"/>
<path d="M103.72 13.6015H102.576L98.4861 3.42826C98.3459 3.07728 98.1048 2.77648 97.7936 2.56446C97.4825 2.35241 97.1154 2.2388 96.7397 2.23818H94.202C93.9553 2.23692 93.7108 2.28458 93.4826 2.37842C93.2542 2.47228 93.0466 2.61048 92.8712 2.78516C92.696 2.95985 92.5566 3.16755 92.4611 3.39647C92.3656 3.62537 92.3158 3.87098 92.3145 4.11927V16.4423H95.1743V5.079H96.3183L100.406 15.2522C100.548 15.6025 100.792 15.9021 101.104 16.1127C101.416 16.3233 101.784 16.4354 102.16 16.4346H104.698C104.944 16.4359 105.189 16.3882 105.417 16.2944C105.646 16.2005 105.853 16.0623 106.029 15.8876C106.204 15.713 106.343 15.5052 106.439 15.2763C106.534 15.0474 106.584 14.8018 106.585 14.5535V2.23818H103.72V13.6015Z" fill="white"/>
<path d="M65.0357 2.23816H62.1758V13.6226C62.1777 13.9957 62.253 14.3647 62.3969 14.7085C62.5409 15.0524 62.7508 15.3642 63.0147 15.6262C63.2786 15.8881 63.5914 16.0951 63.9348 16.2351C64.2784 16.3752 64.646 16.4455 65.0166 16.4423H73.5963V13.6014H65.0357V2.23816Z" fill="white"/>
</g>
</svg>
