<svg width="82" height="21" viewBox="0 0 82 21" fill="none" xmlns="http://www.w3.org/2000/svg">
<g clip-path="url(#clip0_468_7897)">
<path d="M25.3047 18.8939V1.95124H30.9116C32.7709 1.95124 34.171 2.33212 35.1087 3.09387C36.0464 3.85245 36.5152 4.97921 36.5152 6.47416C36.5152 7.26448 36.2904 7.9691 35.8312 8.57533C35.3784 9.1879 34.7587 9.66083 33.9719 9.99409C34.9 10.248 35.6321 10.7368 36.1716 11.4509C36.7111 12.1714 36.9744 13.0252 36.9744 14.0123C36.9744 15.5327 36.4767 16.7261 35.478 17.5926C34.4825 18.4623 33.076 18.8939 31.2552 18.8939H25.3047ZM27.5686 11.0066V17.0594H31.2969C32.3502 17.0594 33.1819 16.7927 33.7889 16.2563C34.3958 15.7199 34.7009 14.9804 34.7009 14.0441C34.7009 12.0191 33.5801 11.0066 31.3322 11.0066H27.5686ZM27.5686 9.17203H30.979C31.9681 9.17203 32.758 8.92446 33.3553 8.43567C33.9462 7.94688 34.2449 7.28669 34.2449 6.44876C34.2449 5.51562 33.9687 4.83956 33.4196 4.41742C32.8704 3.99211 32.0323 3.78263 30.9116 3.78263H27.5686V9.17203ZM49.7778 14.463H42.5909L40.9789 18.8971H38.6475L45.1953 1.95124H47.1734L53.7308 18.8971H51.4123L49.7778 14.463ZM43.2782 12.6285H49.1098L46.1876 4.70943L43.2782 12.6285ZM61.0911 11.343C59.1547 10.7908 57.7449 10.1115 56.8586 9.30851C55.9755 8.5055 55.5324 7.51205 55.5324 6.3345C55.5324 5.00143 56.0751 3.89689 57.1508 3.02087C58.233 2.14803 59.6331 1.71002 61.3576 1.71002C62.5361 1.71002 63.5894 1.93537 64.5079 2.38608C65.4327 2.83361 66.1424 3.45571 66.6498 4.2492C67.1571 5.03952 67.4108 5.90601 67.4108 6.84234H65.1405C65.1405 5.81714 64.8097 5.01095 64.1514 4.42377C63.4931 3.83976 62.5586 3.54458 61.3576 3.54458C60.2433 3.54458 59.3762 3.7858 58.7533 4.27142C58.1271 4.76021 57.8156 5.42992 57.8156 6.29324C57.8156 6.98517 58.1078 7.57235 58.7051 8.04845C59.296 8.52454 60.3043 8.96255 61.7301 9.3593C63.1527 9.75604 64.2702 10.1941 65.073 10.6701C65.8758 11.1462 66.4731 11.7017 66.8617 12.3428C67.2503 12.9776 67.4429 13.7299 67.4429 14.59C67.4429 15.9643 66.9002 17.0657 65.818 17.8909C64.7326 18.7162 63.2876 19.1288 61.4732 19.1288C60.2947 19.1288 59.1932 18.9066 58.1752 18.4623C57.1573 18.0147 56.3705 17.4021 55.8149 16.6277C55.2594 15.8532 54.9864 14.9709 54.9864 13.987H57.2568C57.2568 15.009 57.6389 15.8152 58.4064 16.4055C59.1707 16.9959 60.1919 17.2942 61.4732 17.2942C62.6678 17.2942 63.5798 17.053 64.2156 16.5706C64.8547 16.0913 65.1726 15.4343 65.1726 14.609C65.1726 13.7775 64.8739 13.1363 64.2895 12.6824C63.7082 12.2349 62.6389 11.7842 61.0911 11.343ZM80.0408 11.0764H72.6131V17.0594H81.2418V18.8939H70.3524V1.95124H81.1262V3.7858H72.6131V9.24186H80.0408V11.0764Z" fill="white"/>
<path d="M11.1824 20.5634C16.8471 20.5634 21.4424 16.0246 21.4424 10.4225C21.4424 4.82363 16.8503 0.281677 11.1824 0.281677C5.80995 0.281677 1.39767 4.36976 0.960938 9.56872H14.5189V11.2731H0.960938C1.39767 16.4753 5.80995 20.5634 11.1824 20.5634Z" fill="white"/>
</g>
<defs>
<clipPath id="clip0_468_7897">
<rect width="80.2817" height="20.2817" fill="white" transform="translate(0.960938 0.281677)"/>
</clipPath>
</defs>
</svg>
