<svg width="62" height="16" viewBox="0 0 62 16" fill="none" xmlns="http://www.w3.org/2000/svg">
<path d="M8.92482 0.313904C7.26815 0.313904 6.06346 0.698269 5.03995 1.58494L3.23261 3.12179C3.08195 3.24034 2.78062 3.32894 2.57019 3.15112C2.35913 2.97391 2.32925 2.73742 2.5098 2.50094L3.47355 1.08202C3.62421 0.874869 3.50405 0.609053 3.23261 0.609053H0.913514C0.642693 0.609053 0.431641 0.816206 0.431641 1.08202V14.9167C0.431641 15.1826 0.642693 15.3897 0.913514 15.3897H3.32288C3.5937 15.3897 3.80476 15.1826 3.80476 14.9167V7.11271C3.80476 3.5361 6.84666 2.97452 7.99096 2.97452C10.4302 2.97452 11.3037 4.68919 11.3037 5.98956V14.9167C11.3037 15.1826 11.5147 15.3897 11.7856 15.3897H14.1949C14.4657 15.3897 14.6768 15.1826 14.6768 14.9167V5.6938C14.6768 2.383 12.4779 0.313904 8.9242 0.313904H8.92482Z" fill="white"/>
<path d="M24.4933 0.254639C19.8253 0.254639 16.8438 3.06313 16.8438 6.87623V8.97527C16.8438 12.9955 19.8253 15.7448 24.4933 15.7448C28.6192 15.7448 31.5104 13.6457 31.8117 10.8079C31.8422 10.5121 31.6312 10.3056 31.3299 10.3056H28.9809C28.7698 10.3056 28.5893 10.4241 28.5289 10.6307C28.2276 11.5766 26.8124 12.9955 24.4933 12.9955C22.1742 12.9955 20.0058 11.3401 20.0357 8.97527L20.0662 6.3446C20.0961 4.36411 22.2048 3.00447 24.4933 3.00447C26.5715 3.00447 28.5893 4.15757 28.7997 6.04945C28.8171 6.26822 28.664 6.46559 28.4442 6.50715L21.6917 7.79346C21.4209 7.85273 21.2099 8.08922 21.2099 8.38437V8.4137C21.2099 8.67951 21.4807 8.916 21.8723 8.916H31.5702C31.8366 8.916 32.052 8.70396 32.052 8.44303V6.58109C32.052 3.06375 28.9497 0.255249 24.4927 0.255249L24.4933 0.254639Z" fill="white"/>
<path d="M41.2981 0.254639C37.5334 0.254639 34.281 2.41234 34.281 5.25017C34.281 5.48665 34.4921 5.66387 34.7629 5.66387H37.2022C37.4431 5.66387 37.6237 5.48665 37.6542 5.25017C37.8951 3.9498 39.4914 3.00386 41.2078 3.00386C43.2555 3.00386 44.6413 4.24556 44.6413 6.37393V8.94594C44.6413 11.5766 42.6535 12.9069 40.1837 12.9069C38.2562 12.9069 37.1418 12.1975 37.1418 11.0444C37.1418 10.0392 37.6841 9.18182 39.9123 8.67951L43.1347 7.82218C43.4659 7.73357 43.5867 7.46714 43.5263 7.172C43.4964 6.93551 43.2256 6.81696 42.984 6.81696H39.6414C36.8106 6.81696 33.9492 8.5903 33.9492 11.1916V11.6053C33.9492 14.266 36.5093 15.6549 39.4304 15.6549C41.2975 15.6549 42.8938 14.9455 43.8874 14.1181L45.3635 12.8764C45.6045 12.6692 45.8454 12.6692 46.0558 12.8764C46.2364 13.0536 46.176 13.32 46.0253 13.5266L45.122 14.9161C44.9713 15.1233 45.0915 15.3891 45.3629 15.3891H47.5313C47.8022 15.3891 48.0132 15.182 48.0132 14.9161V5.95901C48.0132 2.53028 45.5136 0.254028 41.2969 0.254028L41.2981 0.254639Z" fill="white"/>
<path d="M61.0238 0.60968H57.6507C56.4765 0.60968 55.3316 1.31914 54.5185 1.99926L53.1937 3.12242C53.043 3.24096 52.7716 3.32957 52.5911 3.18169C52.38 3.03381 52.2897 2.73805 52.4709 2.50157L53.4346 1.08265C53.5853 0.875498 53.4651 0.60968 53.1937 0.60968H50.935C50.6642 0.60968 50.4531 0.816835 50.4531 1.08265V14.9174C50.4531 15.1832 50.6642 15.3903 50.935 15.3903H53.4048C53.6756 15.3903 53.8866 15.1832 53.8866 14.9174V7.8228C53.8866 4.77782 55.1517 3.41818 57.8923 3.41818H61.0245C61.2953 3.41818 61.5063 3.21102 61.5063 2.9452V1.08265C61.5063 0.816835 61.2953 0.60968 61.0245 0.60968H61.0238Z" fill="white"/>
</svg>
