<svg width="108" height="15" viewBox="0 0 108 15" fill="none" xmlns="http://www.w3.org/2000/svg">
<g clip-path="url(#clip0_468_7887)">
<path d="M6.02887 14.338C4.4491 14.338 3.15475 13.9875 2.14582 13.2863C1.15017 12.5728 0.652344 11.5587 0.652344 10.2441C0.652344 9.96867 0.685532 9.63064 0.751909 9.23001C0.924489 8.32862 1.17008 7.24569 1.48869 5.98121C2.39142 2.53834 4.72125 0.816895 8.47819 0.816895C9.50038 0.816895 10.4164 0.979649 11.2262 1.30516C12.036 1.61815 12.6732 2.09389 13.1378 2.73239C13.6024 3.35837 13.8348 4.10954 13.8348 4.98591C13.8348 5.24882 13.8016 5.58059 13.7353 5.98121C13.5361 7.09546 13.2971 8.1784 13.0184 9.23001C12.5537 10.9452 11.7506 12.2285 10.6089 13.0798C9.46716 13.9186 7.94054 14.338 6.02887 14.338ZM6.30766 11.6338C7.05108 11.6338 7.68165 11.4272 8.19942 11.0141C8.7304 10.6009 9.10875 9.96867 9.33442 9.11738C9.6398 7.9405 9.87206 6.91392 10.0314 6.03755C10.0845 5.77464 10.1111 5.50547 10.1111 5.23004C10.1111 4.09076 9.48044 3.52112 8.2193 3.52112C7.47589 3.52112 6.83867 3.7277 6.30766 4.14084C5.78991 4.55399 5.4182 5.18622 5.19252 6.03755C4.95357 6.87636 4.71461 7.90298 4.47565 9.11738C4.42255 9.36772 4.396 9.63064 4.396 9.90607C4.396 11.0579 5.03322 11.6338 6.30766 11.6338Z" fill="white"/>
<path d="M15.855 14.1502C15.7089 14.1502 15.5961 14.1064 15.5165 14.0188C15.4501 13.9186 15.4301 13.806 15.4567 13.6808L18.2047 1.47418C18.2312 1.33647 18.3043 1.22379 18.4238 1.13616C18.5432 1.04852 18.6694 1.0047 18.8021 1.0047H24.0989C25.5725 1.0047 26.754 1.29265 27.6435 1.86855C28.5462 2.44445 28.9976 3.277 28.9976 4.3662C28.9976 4.67919 28.9578 5.0047 28.8781 5.34272C28.5462 6.78247 27.8758 7.84661 26.8669 8.53524C25.8712 9.2238 24.5038 9.56805 22.7648 9.56805H20.0765L19.1605 13.6808C19.134 13.8185 19.0609 13.9311 18.9415 14.0188C18.822 14.1064 18.6959 14.1502 18.5631 14.1502H15.855ZM22.9042 6.97653C23.4618 6.97653 23.9463 6.83256 24.3578 6.5446C24.7827 6.25666 25.0614 5.84351 25.1942 5.30517C25.234 5.09233 25.2539 4.90455 25.2539 4.74178C25.2539 4.37872 25.1411 4.10329 24.9154 3.9155C24.6897 3.71519 24.3047 3.61503 23.7605 3.61503H21.3709L20.6142 6.97653H22.9042Z" fill="white"/>
<path d="M33.4842 14.1502C33.3382 14.1502 33.2254 14.1064 33.1457 14.0188C33.0661 13.9186 33.0395 13.806 33.0661 13.6808L35.2764 3.95306H31.7319C31.5859 3.95306 31.473 3.90924 31.3933 3.8216C31.327 3.72145 31.3071 3.60877 31.3337 3.48357L31.7917 1.47418C31.8182 1.33647 31.8912 1.22379 32.0106 1.13616C32.1301 1.04852 32.2563 1.0047 32.389 1.0047H43.1023C43.2483 1.0047 43.3611 1.04852 43.4408 1.13616C43.4939 1.21127 43.5204 1.28639 43.5204 1.36151C43.5204 1.39907 43.5138 1.43662 43.5005 1.47418L43.0425 3.48357C43.0159 3.62129 42.943 3.73397 42.8234 3.8216C42.7172 3.90924 42.5912 3.95306 42.4451 3.95306H38.9205L36.7101 13.6808C36.6836 13.8185 36.6106 13.9311 36.4911 14.0188C36.3716 14.1064 36.2455 14.1502 36.1128 14.1502H33.4842Z" fill="white"/>
<path d="M44.0297 14.1502C43.8837 14.1502 43.7709 14.1064 43.6912 14.0188C43.6115 13.9186 43.585 13.806 43.6115 13.6808L46.3795 1.47418C46.406 1.33647 46.4791 1.22379 46.5985 1.13616C46.718 1.04852 46.8441 1.0047 46.9769 1.0047H49.6651C49.8111 1.0047 49.924 1.04852 50.0037 1.13616C50.0568 1.21127 50.0833 1.28639 50.0833 1.36151C50.0833 1.39907 50.0766 1.43662 50.0634 1.47418L47.3153 13.6808C47.2888 13.8185 47.2158 13.9311 47.0964 14.0188C46.9769 14.1064 46.8507 14.1502 46.718 14.1502H44.0297Z" fill="white"/>
<path d="M51.6117 14.1502C51.4657 14.1502 51.3528 14.1064 51.2732 14.0188C51.1936 13.9311 51.167 13.8185 51.1935 13.6808L53.9416 1.47418C53.9681 1.33647 54.0411 1.22379 54.1605 1.13616C54.2801 1.04852 54.4128 1.0047 54.5589 1.0047H56.7094C57.0281 1.0047 57.2338 1.14241 57.3267 1.41785L59.4973 7.33334L64.3362 1.41785C64.4025 1.31769 64.4955 1.22379 64.6149 1.13616C64.7477 1.04852 64.907 1.0047 65.0929 1.0047H67.2634C67.4094 1.0047 67.5222 1.04852 67.6019 1.13616C67.655 1.21127 67.6816 1.28639 67.6816 1.36151C67.6816 1.39907 67.6749 1.43662 67.6616 1.47418L64.9136 13.6808C64.8871 13.8185 64.814 13.9311 64.6946 14.0188C64.5751 14.1064 64.449 14.1502 64.3162 14.1502H61.9067C61.7607 14.1502 61.6479 14.1064 61.5682 14.0188C61.5018 13.9186 61.482 13.806 61.5085 13.6808L63.0618 6.75118L60.015 10.5634C59.8823 10.7011 59.7562 10.8075 59.6367 10.8826C59.5172 10.9578 59.3778 10.9953 59.2185 10.9953H58.183C57.9043 10.9953 57.7118 10.8513 57.6056 10.5634L56.1917 6.58217L54.5987 13.6808C54.5721 13.8185 54.4991 13.9311 54.3796 14.0188C54.2601 14.1064 54.134 14.1502 54.0013 14.1502H51.6117Z" fill="white"/>
<path d="M69.1879 14.1502C69.0418 14.1502 68.929 14.1064 68.8494 14.0188C68.7697 13.9186 68.7432 13.806 68.7697 13.6808L71.5376 1.47418C71.5642 1.33647 71.6372 1.22379 71.7566 1.13616C71.8759 1.04852 72.0022 1.0047 72.1349 1.0047H74.8232C74.9694 1.0047 75.0823 1.04852 75.1618 1.13616C75.215 1.21127 75.2413 1.28639 75.2413 1.36151C75.2413 1.39907 75.2349 1.43662 75.2214 1.47418L72.4736 13.6808C72.4473 13.8185 72.3742 13.9311 72.2542 14.0188C72.1349 14.1064 72.0086 14.1502 71.8759 14.1502H69.1879Z" fill="white"/>
<path d="M81.6898 14.338C80.5214 14.338 79.519 14.1878 78.6828 13.8873C77.8594 13.5869 77.2354 13.1862 76.8109 12.6855C76.3992 12.1846 76.1934 11.6275 76.1934 11.0141C76.1934 10.9139 76.2068 10.7637 76.2331 10.5634C76.2601 10.4507 76.3133 10.3568 76.3928 10.2817C76.4858 10.2066 76.5916 10.169 76.7116 10.169H79.26C79.4197 10.169 79.5389 10.1941 79.6184 10.2441C79.7114 10.2942 79.8044 10.3818 79.8974 10.507C79.9904 10.8325 80.2026 11.1017 80.5349 11.3146C80.8798 11.5274 81.3512 11.6338 81.9482 11.6338C82.7049 11.6338 83.3161 11.5211 83.7803 11.2958C84.2453 11.0704 84.5243 10.7637 84.6165 10.3756C84.63 10.3255 84.6364 10.2504 84.6364 10.1503C84.6364 9.83724 84.4313 9.59312 84.0196 9.41782C83.6078 9.23001 82.8511 9.01097 81.7494 8.76056C80.4617 8.49764 79.4857 8.10329 78.822 7.57746C78.1583 7.03911 77.8267 6.33802 77.8267 5.47417C77.8267 5.1737 77.8665 4.86697 77.946 4.55399C78.2115 3.38967 78.8688 2.47573 79.9173 1.8122C80.9792 1.14866 82.3464 0.816895 84.0196 0.816895C85.0283 0.816895 85.9248 0.985909 86.7078 1.32394C87.4908 1.66196 88.0949 2.09389 88.5201 2.61971C88.958 3.13302 89.1767 3.64632 89.1767 4.15962C89.1767 4.30985 89.1703 4.41627 89.1568 4.47887C89.1305 4.59154 89.0709 4.68544 88.9779 4.76055C88.8984 4.83568 88.7983 4.87323 88.6791 4.87323H86.0107C85.719 4.87323 85.5195 4.76681 85.4137 4.55399C85.4002 4.26603 85.2405 4.0219 84.9353 3.82159C84.63 3.62128 84.2318 3.52112 83.7406 3.52112C83.1564 3.52112 82.6722 3.62128 82.2868 3.82159C81.9155 4.0219 81.6827 4.31611 81.5904 4.70422C81.5769 4.76681 81.5698 4.84819 81.5698 4.94835C81.5698 5.24882 81.7558 5.49921 82.1278 5.69952C82.5125 5.88732 83.1833 6.08137 84.1388 6.28168C85.626 6.55711 86.7078 6.95148 87.385 7.46478C88.075 7.97809 88.42 8.66043 88.42 9.51172C88.42 9.79965 88.3802 10.1127 88.3007 10.4507C88.009 11.7277 87.2984 12.698 86.1697 13.3615C85.0552 14.0125 83.5617 14.338 81.6898 14.338Z" fill="white"/>
<path d="M91.0611 14.1502C90.9148 14.1502 90.802 14.1064 90.7225 14.0188C90.6429 13.9311 90.616 13.8185 90.643 13.6808L93.3908 1.47418C93.4171 1.33647 93.4902 1.22379 93.6102 1.13616C93.7294 1.04852 93.8622 1.0047 94.0084 1.0047H96.1586C96.4773 1.0047 96.6831 1.14241 96.7761 1.41785L98.9469 7.33334L103.785 1.41785C103.852 1.31769 103.945 1.22379 104.064 1.13616C104.197 1.04852 104.356 1.0047 104.542 1.0047H106.713C106.859 1.0047 106.972 1.04852 107.051 1.13616C107.105 1.21127 107.131 1.28639 107.131 1.36151C107.131 1.39907 107.124 1.43662 107.111 1.47418L104.363 13.6808C104.336 13.8185 104.263 13.9311 104.144 14.0188C104.025 14.1064 103.898 14.1502 103.765 14.1502H101.356C101.21 14.1502 101.097 14.1064 101.018 14.0188C100.951 13.9186 100.931 13.806 100.958 13.6808L102.511 6.75118L99.4644 10.5634C99.3316 10.7011 99.2053 10.8075 99.086 10.8826C98.9668 10.9578 98.8269 10.9953 98.6679 10.9953H97.6322C97.3532 10.9953 97.1609 10.8513 97.0551 10.5634L95.6411 6.58217L94.0481 13.6808C94.0212 13.8185 93.9481 13.9311 93.8288 14.0188C93.7095 14.1064 93.5832 14.1502 93.4504 14.1502H91.0611Z" fill="white"/>
</g>
<defs>
<clipPath id="clip0_468_7887">
<rect width="106.479" height="13.5211" fill="white" transform="translate(0.652344 0.816895)"/>
</clipPath>
</defs>
</svg>
