<svg width="125" height="46" viewBox="0 0 125 46" fill="none" xmlns="http://www.w3.org/2000/svg">
<path d="M36.8821 23.3183V29.9768C36.8797 30.392 36.772 30.7995 36.5695 31.1594C36.3669 31.5193 36.0765 31.8194 35.7266 32.0302L30.0849 35.3525C29.7354 35.5655 29.3362 35.6779 28.9294 35.6779C28.5226 35.6779 28.1234 35.5655 27.774 35.3525L22.1322 32.0302C21.7822 31.8194 21.4918 31.5193 21.2893 31.1594C21.0868 30.7995 20.9791 30.392 20.9767 29.9768V28.108L23.8653 26.3937V29.6423L28.9204 32.6416L33.9754 29.6423V23.6574L28.9204 20.6581L17.0771 27.6719C16.7245 27.8751 16.3265 27.9818 15.9217 27.9818C15.5169 27.9818 15.1189 27.8751 14.7663 27.6719L9.12444 24.3357C8.77991 24.1217 8.4951 23.8206 8.29742 23.4613C8.09979 23.1021 7.99603 22.6968 7.99609 22.2846V15.6261C7.99843 15.2108 8.10616 14.8034 8.3087 14.4434C8.51118 14.0835 8.80164 13.7835 9.15151 13.5727L14.7933 10.2503C15.1435 10.0395 15.5424 9.92834 15.9487 9.92834C16.3551 9.92834 16.754 10.0395 17.1042 10.2503L22.746 13.5727C23.0959 13.7835 23.3864 14.0835 23.5888 14.4434C23.7914 14.8034 23.8991 15.2108 23.9014 15.6261V17.4949L20.9948 19.1976V15.9675L15.9397 12.9682L10.8847 15.9675V21.9455L15.9397 24.9448L27.783 17.931C28.1357 17.7278 28.5336 17.6211 28.9384 17.6211C29.3432 17.6211 29.7412 17.7278 30.0939 17.931L35.7357 21.2671C36.0836 21.4789 36.372 21.7791 36.5728 22.1385C36.7738 22.4979 36.8803 22.9043 36.8821 23.3183Z" fill="white"/>
<path d="M46.9357 32.397V27.2081C47.4863 27.9164 48.4861 28.3132 49.6438 28.3132C52.6 28.3132 54.5973 26.1675 54.5973 22.896C54.5973 19.6244 52.7626 17.4787 49.8898 17.4787C48.5651 17.4787 47.545 17.9794 46.9335 18.7915V17.6379H44.1035V32.39L46.9357 32.397ZM49.294 25.8122C47.7639 25.8122 46.7664 24.6448 46.7664 22.896C46.7664 21.1471 47.7639 19.9589 49.294 19.9589C50.7811 19.9589 51.8012 21.1125 51.8012 22.896C51.8012 24.6794 50.7879 25.8122 49.294 25.8122Z" fill="white"/>
<path d="M61.0294 28.3132C64.1891 28.3132 66.4456 26.0199 66.4456 22.896C66.4456 19.772 64.1891 17.4787 61.0294 17.4787C57.87 17.4787 55.6133 19.7697 55.6133 22.896C55.6133 26.0222 57.87 28.3132 61.0294 28.3132ZM61.0294 25.8122C59.5016 25.8122 58.4613 24.624 58.4613 22.896C58.4613 21.1679 59.5039 19.9589 61.0294 19.9589C62.555 19.9589 63.5974 21.1448 63.5974 22.896C63.5974 24.6471 62.5592 25.8122 61.0294 25.8122Z" fill="white"/>
<path d="M70.998 28.1472V13.0812H68.166V28.1472H70.998Z" fill="white"/>
<path d="M79.5116 17.6448L77.3721 24.4165L75.2123 17.6448H72.3125L76.0405 28.0618L74.533 32.397H77.2413L78.6966 28.108L82.427 17.6494L79.5116 17.6448Z" fill="white"/>
<path d="M90.3835 18.6876C89.8122 17.9586 88.804 17.4787 87.551 17.4787C84.5546 17.4787 82.7422 19.6244 82.7422 22.896C82.7422 26.1675 84.5474 28.3132 87.5918 28.3132C88.7944 28.3132 89.8735 27.8518 90.404 27.0835V28.4678C90.404 29.4461 89.772 30.1336 88.9168 30.1336H84.1885V32.4062H89.3657C91.6876 32.4062 93.2359 30.9688 93.2359 28.7793V17.6448H90.3835V18.6876ZM88.0407 25.8122C86.5314 25.8122 85.534 24.6586 85.534 22.896C85.534 21.1333 86.5314 19.9589 88.0407 19.9589C89.5506 19.9589 90.566 21.1125 90.566 22.896C90.566 24.6794 89.5686 25.8122 88.0407 25.8122Z" fill="white"/>
<path d="M100.377 28.3132C103.537 28.3132 105.793 26.0199 105.793 22.896C105.793 19.772 103.537 17.4787 100.377 17.4787C97.218 17.4787 94.9609 19.7697 94.9609 22.896C94.9609 26.0222 97.218 28.3132 100.377 28.3132ZM100.377 25.8122C98.8473 25.8122 97.8091 24.624 97.8091 22.896C97.8091 21.1679 98.8473 19.9589 100.377 19.9589C101.907 19.9589 102.946 21.1448 102.946 22.896C102.946 24.6471 101.905 25.8122 100.377 25.8122Z" fill="white"/>
<path d="M110.202 28.1471V22.3953C110.202 21.041 111.078 20.0628 112.321 20.0628C113.504 20.0628 114.298 20.9856 114.298 22.2499V28.1471H117.15V21.6039C117.15 19.186 115.643 17.4787 113.314 17.4787C111.908 17.4787 110.769 18.0832 110.198 19.0937V17.6448H107.35V28.1471H110.202Z" fill="white"/>
</svg>
