<svg width="112" height="24" viewBox="0 0 112 24" fill="none" xmlns="http://www.w3.org/2000/svg">
<path d="M30.6457 7.97736H31.8571L35.2507 15.8502H33.6482L32.915 14.0487H29.5005L28.7883 15.8502H27.2207L30.6457 7.97736ZM32.4262 12.8477L31.2147 9.64619L29.9788 12.8477H32.4262Z" fill="white"/>
<path d="M36.752 7.97736H38.3649L40.5121 13.9265L42.7255 7.97736H44.2373L41.0567 15.8502H39.8452L36.752 7.97736Z" fill="white"/>
<path d="M49.2488 7.97736H50.4602L53.8503 15.8502H52.2478L51.5146 14.0487H48.1001L47.3879 15.8502H45.8203L49.2488 7.97736ZM51.0258 12.8477L49.8143 9.64619L48.5784 12.8477H51.0258Z" fill="white"/>
<path d="M56.9492 7.97736H58.3492V14.5829H61.6974V15.8502H56.9492V7.97736Z" fill="white"/>
<path d="M67.489 7.97736H68.7005L72.094 15.8502H70.4915L69.7583 14.0487H66.3404L65.6281 15.8502H64.0605L67.489 7.97736ZM69.2661 12.8477L68.0546 9.64619L66.8187 12.8477H69.2661Z" fill="white"/>
<path d="M75.1914 7.97736H77.0488L80.8647 13.8288H80.8857V7.97736H82.2857V15.8502H80.5051L76.6124 9.81028H76.5914V15.8502H75.1914V7.97736Z" fill="white"/>
<path d="M91.6746 9.82423C91.3848 9.5135 91.1055 9.30402 90.8297 9.20277C90.5644 9.09804 90.2921 9.04567 90.0197 9.04567C89.6113 9.04567 89.2412 9.11898 88.906 9.26911C88.5813 9.40876 88.2985 9.61126 88.0611 9.86961C87.8237 10.121 87.6387 10.4177 87.506 10.7599C87.3803 11.102 87.3175 11.4686 87.3175 11.8596C87.3175 12.2821 87.3803 12.6731 87.506 13.0257C87.6387 13.3818 87.8237 13.6891 88.0611 13.9474C88.2985 14.2058 88.5813 14.4118 88.906 14.5584C89.2412 14.705 89.6113 14.7819 90.0197 14.7819C90.3375 14.7819 90.6447 14.7085 90.9415 14.5584C91.2452 14.4013 91.528 14.1569 91.7863 13.8252L92.942 14.6492C92.5858 15.138 92.1529 15.4941 91.6397 15.7175C91.13 15.941 90.5818 16.0527 90.0058 16.0527C89.3983 16.0527 88.8397 15.9549 88.3265 15.7629C87.8237 15.5639 87.3838 15.2846 87.0138 14.9285C86.6507 14.5654 86.3644 14.1325 86.1584 13.6262C85.9524 13.1235 85.8477 12.5614 85.8477 11.9469C85.8477 11.315 85.9524 10.7459 86.1584 10.2327C86.3644 9.7125 86.6507 9.2726 87.0138 8.90951C87.3838 8.54642 87.8202 8.26711 88.3265 8.07509C88.8362 7.87609 89.3983 7.77484 90.0058 7.77484C90.54 7.77484 91.0322 7.87259 91.4861 8.06462C91.9469 8.24965 92.3729 8.56736 92.7639 9.02123L91.6746 9.82423Z" fill="white"/>
<path d="M96.1035 7.97736H97.5035V11.1125H101.183V7.97736H102.583V15.8502H101.183V12.3799H97.5035V15.8502H96.1035V7.97736Z" fill="white"/>
<path d="M106.574 7.97736H111.79V9.2447H107.974V11.1789H111.588V12.4462H107.974V14.5829H111.989V15.8502H106.574V7.97736Z" fill="white"/>
<path fill-rule="evenodd" clip-rule="evenodd" d="M23.073 11.9155C23.073 18.1545 18.0176 23.2099 11.7787 23.2099C5.53976 23.2099 0.484375 18.1545 0.484375 11.9155C0.484375 5.6766 5.53976 0.621216 11.7787 0.621216C18.0176 0.621216 23.073 5.6766 23.073 11.9155ZM8.57718 16.4088H6.38465C5.9238 16.4088 5.69687 16.4088 5.55722 16.3215C5.40709 16.2238 5.31632 16.0632 5.30584 15.8851C5.29886 15.721 5.41058 15.522 5.63752 15.1205L11.049 5.58234C11.2794 5.17735 11.3947 4.97485 11.5413 4.89804C11.6984 4.81774 11.8869 4.81774 12.0475 4.89804C12.1942 4.97136 12.3094 5.17385 12.5398 5.58234L13.6535 7.52349L13.6605 7.53397C13.9084 7.96689 14.0341 8.19033 14.0899 8.42075C14.1493 8.67213 14.1493 8.94096 14.0899 9.19233C14.0341 9.42624 13.9084 9.64619 13.657 10.0896L10.8151 15.1136L10.8081 15.1275C10.5567 15.5674 10.4311 15.7874 10.2565 15.955C10.0645 16.1365 9.83404 16.2727 9.58267 16.346C9.35225 16.4088 9.09389 16.4088 8.57718 16.4088ZM14.1109 16.4088H17.253C17.7174 16.4088 17.9478 16.4088 18.0875 16.318C18.2376 16.2203 18.3318 16.0562 18.3388 15.8781C18.3458 15.721 18.2341 15.529 18.0176 15.152C18.0106 15.138 18.0037 15.1275 17.9932 15.1136L16.4186 12.4218L16.4012 12.3903C16.1812 12.0168 16.0695 11.8283 15.9263 11.7549C15.7692 11.6746 15.5807 11.6746 15.4236 11.7549C15.2805 11.8283 15.1617 12.0273 14.9313 12.4253L13.3637 15.117L13.3568 15.1275C13.1263 15.522 13.0111 15.721 13.0216 15.8851C13.0321 16.0632 13.1228 16.2273 13.273 16.325C13.4161 16.4088 13.65 16.4088 14.1109 16.4088Z" fill="white"/>
</svg>
