<svg width="106" height="19" viewBox="0 0 106 19" fill="none" xmlns="http://www.w3.org/2000/svg">
<path d="M12.3929 13.7998L10.9613 12.3507C10.4201 12.857 9.86139 13.2586 9.3027 13.5554C8.74402 13.8522 8.08058 14.0093 7.29492 14.0093C6.68386 14.0093 6.12517 13.8871 5.61886 13.6601C5.09509 13.4157 4.65862 13.1014 4.27452 12.6824C3.89042 12.2634 3.61108 11.792 3.40157 11.2333C3.19206 10.6746 3.08731 10.0985 3.08731 9.45251C3.08731 8.82399 3.19206 8.23039 3.40157 7.68916C3.61108 7.14793 3.89042 6.67654 4.27452 6.25752C4.65862 5.85596 5.09509 5.52424 5.61886 5.29728C6.14263 5.05285 6.70132 4.9481 7.29492 4.9481C8.0282 4.9481 8.67418 5.08777 9.23287 5.38457C9.80901 5.68137 10.3502 6.06547 10.8566 6.53686L12.2882 4.87826C11.9914 4.58146 11.6597 4.31957 11.3279 4.07515C10.9962 3.83072 10.6121 3.62121 10.2106 3.44662C9.80901 3.27203 9.37254 3.13237 8.88369 3.04507C8.4123 2.94032 7.87107 2.9054 7.29492 2.9054C6.31722 2.9054 5.44427 3.07999 4.64116 3.42916C3.83805 3.77834 3.15715 4.24974 2.56354 4.84334C1.9874 5.43695 1.53346 6.13531 1.20174 6.93842C0.887481 7.74153 0.712891 8.59702 0.712891 9.50489C0.712891 10.4302 0.870022 11.2857 1.20174 12.0888C1.53346 12.8919 1.9874 13.5903 2.56354 14.1664C3.13969 14.76 3.82059 15.214 4.60624 15.5631C5.39189 15.9123 6.24738 16.0695 7.19017 16.0695C7.78377 16.0695 8.325 16.0171 8.81385 15.9123C9.3027 15.8076 9.75664 15.6504 10.1757 15.4584C10.5947 15.2663 10.9788 15.0219 11.3279 14.7426C11.712 14.4632 12.0612 14.149 12.3929 13.7998Z" fill="white"/>
<path d="M41.253 6.48453C41.253 6.06552 41.4276 5.69888 41.7942 5.40208C42.1609 5.10528 42.6672 4.9656 43.3132 4.9656C43.8893 4.9656 44.4655 5.07036 45.0242 5.29732C45.5828 5.52429 46.159 5.83855 46.7351 6.27503L47.9223 4.5815C47.2764 4.05774 46.578 3.67364 45.8273 3.3943C45.094 3.11495 44.256 2.99274 43.3306 2.99274C42.7021 2.99274 42.126 3.08003 41.6022 3.25462C41.0784 3.42921 40.6245 3.67364 40.2404 4.00536C39.8563 4.33708 39.5595 4.72117 39.35 5.17511C39.1405 5.62904 39.0357 6.13535 39.0357 6.69404C39.0357 7.28765 39.123 7.79396 39.3151 8.19551C39.5071 8.61453 39.769 8.96371 40.1356 9.24305C40.4848 9.53985 40.9388 9.76682 41.4625 9.97633C41.9863 10.1684 42.5974 10.343 43.2608 10.5001C43.8544 10.6398 44.3258 10.7794 44.7099 10.9191C45.0765 11.0588 45.3733 11.1985 45.5828 11.3381C45.7923 11.4953 45.932 11.6524 46.0193 11.8444C46.0891 12.019 46.1415 12.2285 46.1415 12.4555C46.1415 12.9444 45.932 13.3459 45.5305 13.6427C45.1289 13.9395 44.5877 14.0792 43.8893 14.0792C43.0862 14.0792 42.3878 13.9395 41.7593 13.6602C41.1308 13.3808 40.5197 12.9618 39.8912 12.438L38.5469 14.0268C39.3151 14.7077 40.1356 15.2315 41.026 15.5632C41.9165 15.8949 42.8592 16.0695 43.8369 16.0695C44.5004 16.0695 45.1114 15.9822 45.6701 15.8076C46.2288 15.633 46.7002 15.3886 47.0843 15.0569C47.4859 14.7252 47.7827 14.3236 48.0096 13.8522C48.2366 13.3808 48.3414 12.8396 48.3414 12.246C48.3414 11.7222 48.2541 11.2508 48.0795 10.8667C47.9049 10.4652 47.643 10.1335 47.3113 9.83666C46.9796 9.53985 46.5431 9.29543 46.0368 9.08592C45.5305 8.87641 44.9369 8.68436 44.2734 8.52723C43.6624 8.38756 43.1735 8.24789 42.7719 8.10822C42.3878 7.96855 42.0736 7.82888 41.8466 7.67174C41.6197 7.51461 41.4625 7.34002 41.3927 7.16544C41.2879 6.95593 41.253 6.74642 41.253 6.48453Z" fill="white"/>
<path d="M66.01 6.65911V15.7378H68.2098V3.08002H65.8354L61.977 9.06845L58.1186 3.08002H55.7441V15.7378H57.9614V6.69403L61.9246 12.6301H61.9944L66.01 6.65911Z" fill="white"/>
<path d="M86.7865 9.48743C86.7865 10.0985 86.6817 10.6921 86.4722 11.2508C86.2627 11.8095 85.9659 12.2809 85.5993 12.6824C85.2327 13.084 84.7787 13.4157 84.2549 13.6427C83.7312 13.8871 83.155 13.9918 82.5265 13.9918C81.898 13.9918 81.3218 13.8696 80.7806 13.6252C80.2568 13.3808 79.7855 13.0491 79.4188 12.6475C79.0347 12.2285 78.7379 11.7571 78.5284 11.1984C78.3189 10.6397 78.2141 10.0636 78.2141 9.43506C78.2141 8.82399 78.3189 8.23039 78.5284 7.6717C78.7379 7.11301 79.0347 6.64162 79.4014 6.24006C79.768 5.83851 80.2219 5.50679 80.7457 5.27982C81.2695 5.03539 81.8456 4.93064 82.4741 4.93064C83.1027 4.93064 83.6788 5.05285 84.22 5.29728C84.7438 5.5417 85.2152 5.87343 85.5818 6.27498C85.9659 6.694 86.2627 7.16539 86.4722 7.72407C86.6817 8.28276 86.7865 8.85891 86.7865 9.48743ZM89.126 9.45251C89.126 8.5621 88.9689 7.70662 88.6372 6.90351C88.3054 6.10039 87.8515 5.40203 87.2753 4.80843C86.6992 4.21483 86.0008 3.74343 85.1803 3.39425C84.3772 3.04507 83.4693 2.87048 82.4916 2.87048C81.5139 2.87048 80.6235 3.04507 79.8029 3.39425C78.9998 3.74343 78.284 4.21482 77.6904 4.82588C77.0968 5.41949 76.6428 6.11785 76.3111 6.92096C75.9794 7.72407 75.8223 8.56211 75.8223 9.46997C75.8223 10.3604 75.9794 11.2159 76.3111 12.019C76.6428 12.8221 77.0968 13.5205 77.6729 14.1141C78.2491 14.7077 78.9474 15.1791 79.768 15.5282C80.5711 15.8774 81.479 16.052 82.4567 16.052C83.4344 16.052 84.3248 15.8774 85.1454 15.5282C85.9485 15.1791 86.6643 14.7077 87.2579 14.0966C87.8515 13.503 88.3054 12.8046 88.6372 12.0015C88.9689 11.1984 89.126 10.3429 89.126 9.45251Z" fill="white"/>
<path d="M98.4132 6.48453C98.4132 6.06552 98.5878 5.69888 98.9544 5.40208C99.321 5.10528 99.8273 4.9656 100.473 4.9656C101.049 4.9656 101.626 5.07036 102.184 5.29732C102.743 5.52429 103.319 5.83855 103.895 6.27503L105.082 4.5815C104.437 4.05774 103.738 3.67364 102.987 3.3943C102.254 3.11495 101.416 2.99274 100.491 2.99274C99.8623 2.99274 99.2861 3.08003 98.7624 3.25462C98.2386 3.42921 97.7846 3.67364 97.4005 4.00536C97.0164 4.33708 96.7371 4.72117 96.5101 5.17511C96.3006 5.62904 96.1959 6.13535 96.1959 6.69404C96.1959 7.28765 96.2832 7.79396 96.4752 8.19551C96.6673 8.61453 96.9292 8.96371 97.2958 9.24305C97.645 9.53985 98.0989 9.76682 98.6227 9.97633C99.1464 10.1684 99.7575 10.343 100.421 10.5001C101.015 10.6398 101.486 10.7794 101.87 10.9191C102.237 11.0588 102.533 11.1985 102.743 11.3381C102.953 11.4953 103.092 11.6524 103.179 11.8444C103.249 12.019 103.302 12.2285 103.302 12.4555C103.302 12.9444 103.092 13.3459 102.691 13.6427C102.289 13.9395 101.748 14.0792 101.049 14.0792C100.246 14.0792 99.548 13.9395 98.9195 13.6602C98.291 13.3808 97.6799 12.9618 97.0514 12.438L95.707 14.0268C96.4578 14.7077 97.2958 15.2315 98.1862 15.5632C99.0766 15.8949 100.019 16.0695 100.997 16.0695C101.661 16.0695 102.272 15.9822 102.83 15.8076C103.389 15.633 103.86 15.3886 104.244 15.0569C104.646 14.7252 104.943 14.3236 105.17 13.8522C105.397 13.3808 105.502 12.8396 105.502 12.246C105.502 11.7222 105.414 11.2508 105.24 10.8667C105.065 10.4652 104.803 10.1335 104.471 9.83666C104.14 9.53985 103.703 9.29543 103.197 9.08592C102.691 8.87641 102.097 8.68436 101.434 8.52723C100.823 8.38756 100.334 8.24789 99.9321 8.10822C99.548 7.96855 99.2337 7.82888 99.0068 7.67174C98.7798 7.51461 98.6227 7.34002 98.5528 7.16544C98.4481 6.95593 98.4132 6.74642 98.4132 6.48453Z" fill="white"/>
<path d="M27.5474 5.62903L21.4891 11.6698C21.4193 11.5127 21.332 11.3556 21.2796 11.1984C21.0701 10.6572 20.9653 10.0636 20.9653 9.45255C20.9653 8.84148 21.0701 8.24788 21.2796 7.70665C21.4891 7.16542 21.7859 6.67658 22.1525 6.27502C22.5192 5.87346 22.9731 5.5592 23.4969 5.31478C24.0206 5.08781 24.5968 4.9656 25.2253 4.9656C25.8538 4.9656 26.43 5.08781 26.9712 5.33224C27.1807 5.40207 27.3728 5.50682 27.5474 5.62903ZM27.0061 13.6252C26.4824 13.8522 25.9062 13.9744 25.2777 13.9744C24.6492 13.9744 24.073 13.8522 23.5318 13.6078C23.3397 13.5205 23.1477 13.4157 22.9731 13.311L29.0314 7.27018C29.1012 7.42731 29.1885 7.58444 29.2409 7.74157C29.4504 8.2828 29.5551 8.8764 29.5551 9.48747C29.5551 10.0985 29.4504 10.6921 29.2409 11.2334C29.0314 11.7746 28.7346 12.2634 28.3679 12.665C27.9838 13.0666 27.5474 13.3808 27.0061 13.6252ZM27.9315 15.4934C28.7346 15.1442 29.4504 14.6728 30.044 14.0792C30.6376 13.4856 31.0915 12.7872 31.4232 11.9841C31.755 11.181 31.9121 10.343 31.9121 9.45255C31.9121 8.56214 31.755 7.70665 31.4232 6.921C31.2312 6.44961 30.9868 6.01313 30.7074 5.61157L34.6532 1.68331L33.0818 0.112L29.1361 4.05773C28.7869 3.8133 28.4028 3.60379 27.9838 3.4292C27.1807 3.08002 26.2729 2.90543 25.2952 2.90543C24.3174 2.90543 23.427 3.08002 22.6065 3.4292C21.8034 3.77838 21.0875 4.24978 20.4939 4.84338C19.9003 5.43699 19.4464 6.13534 19.1147 6.93846C18.783 7.74157 18.6258 8.5796 18.6258 9.47001C18.6258 10.3604 18.783 11.2159 19.1147 12.0016C19.3067 12.473 19.5511 12.9094 19.8305 13.311L15.8848 17.2567L17.4561 18.828L21.4018 14.8823C21.751 15.1267 22.1351 15.3362 22.5541 15.5108C23.3572 15.86 24.2651 16.0346 25.2428 16.0346C26.2205 16.0171 27.1109 15.8425 27.9315 15.4934Z" fill="white"/>
</svg>
