<svg width="108" height="24" viewBox="0 0 108 24" fill="none" xmlns="http://www.w3.org/2000/svg">
<g clip-path="url(#clip0_468_7801)">
<path d="M33.7217 3.99554C32.475 3.99554 31.2736 4.15248 30.7843 4.28514C30.0721 4.48576 29.8945 4.79801 29.7605 5.44516L26.9345 18.5095C26.8893 18.7765 26.8457 18.9997 26.8457 19.223C26.8457 19.8701 27.2688 20.2924 27.9583 20.2924C28.7157 20.2924 29.0273 19.8022 29.1824 19.0434L29.9833 15.3207C30.5388 15.387 31.2736 15.455 32.32 15.455C36.9271 15.455 39.7967 12.9586 39.7967 9.19054C39.7967 5.89008 37.5036 3.99554 33.7217 3.99554ZM32.2086 13.3145C31.4964 13.3145 30.9393 13.2919 30.429 13.2255L31.9195 6.29131C32.3862 6.22498 33.0773 6.13438 33.7895 6.13438C36.2376 6.13438 37.4842 7.29439 37.4842 9.21158C37.4826 11.6643 35.7014 13.3145 32.2086 13.3145Z" fill="white"/>
<path d="M106.22 15.9889C105.842 15.9889 105.596 16.2121 105.13 16.725C104.306 17.5728 103.794 18.0403 103.15 18.0403C102.572 18.0403 102.26 17.5728 102.26 16.814C102.26 16.3901 102.349 15.8772 102.46 15.3207L103.284 11.441H105.755C106.533 11.441 107.001 10.9945 107.001 10.192C107.001 9.7455 106.712 9.41222 106.045 9.41222H103.728L104.128 7.60667C104.174 7.33972 104.217 7.0938 104.217 6.87053C104.217 6.24603 103.794 5.7995 103.105 5.7995C102.37 5.7995 102.037 6.28972 101.881 7.0485L101.369 9.41222H100.322C99.5214 9.41222 99.0547 9.85875 99.0547 10.6612C99.0547 11.1077 99.3664 11.441 100.033 11.441H100.946L100.122 15.2754C100.033 15.6993 99.9218 16.3901 99.9218 17.1036C99.9218 18.9091 100.857 20.2245 102.859 20.2245C104.017 20.2245 105.039 19.6453 105.819 18.9528C106.577 18.2846 107.132 17.4595 107.132 16.924C107.132 16.4128 106.732 15.9889 106.22 15.9889Z" fill="white"/>
<path d="M55.0385 5.31084C55.0385 4.66369 54.5929 4.23981 53.9033 4.23981C53.1686 4.23981 52.8359 4.73002 52.6793 5.48881L49.8985 18.4415C49.8323 18.7085 49.7871 18.9317 49.7871 19.155C49.7871 19.8022 50.2328 20.2244 50.8997 20.2244C51.6571 20.2244 51.9897 19.7342 52.1464 18.9754L54.9271 6.02432C54.9723 5.75576 55.0385 5.53411 55.0385 5.31084Z" fill="white"/>
<path d="M94.7583 9.18895C91.1976 9.18895 88.7721 12.7337 88.7721 16.1005C88.7721 16.1636 88.7737 16.2267 88.7753 16.2882C88.2166 17.1376 87.5028 18.0177 87.0135 18.0177C86.6583 18.0177 86.5242 17.6828 86.5242 17.1699C86.5242 16.5454 86.7019 15.497 86.9021 14.5829L88.7495 6.02115C88.7947 5.7542 88.8383 5.53093 88.8383 5.30767C88.8383 4.66052 88.4152 4.23663 87.7257 4.23663C86.9683 4.23663 86.6583 4.72685 86.5016 5.48563L85.5004 10.1225C84.9659 9.56592 84.1859 9.18572 83.0071 9.18572C80.643 9.18572 78.2644 11.0091 77.3374 13.8064C76.3169 16.45 75.4045 18.0145 74.6843 18.0145C74.4178 18.0145 74.2612 17.7912 74.2612 17.4126C74.2612 16.2979 74.8845 13.5782 75.151 12.2629C75.2398 11.7727 75.285 11.5721 75.285 11.2825C75.285 10.302 73.6605 9.14203 71.5467 9.14203C69.1018 9.14203 66.8879 10.6936 65.7785 12.9974C64.1297 15.9161 62.6166 18.0145 61.8673 18.0145C61.5331 18.0145 61.4216 17.5906 61.3328 17.1893L60.7789 14.117L64.183 11.331C64.4947 11.0641 64.8952 10.6839 64.8952 10.1937C64.8952 9.5918 64.4947 9.19057 63.894 9.19057C63.4483 9.19057 63.0704 9.45752 62.6925 9.76977L57.5751 14.0054L59.2885 6.02439C59.3337 5.75744 59.3999 5.53417 59.3999 5.3109C59.3999 4.66375 58.9542 4.23987 58.2646 4.23987C57.5299 4.23987 57.1972 4.73009 57.0406 5.48887L54.2599 18.4416C54.1937 18.7085 54.1484 18.9318 54.1484 19.1551C54.1484 19.8022 54.5941 20.2245 55.2611 20.2245C56.0184 20.2245 56.3511 19.7343 56.5077 18.9755L56.8646 17.3042L58.9558 15.6103L59.4677 18.1957C59.6679 19.2214 60.2024 20.2245 61.5815 20.2245C62.9541 20.2245 64.0344 18.969 65.1164 17.2719C65.4442 19.0499 66.707 20.2245 68.4591 20.2245C70.2176 20.2245 71.4191 19.1761 72.1974 17.7718V17.8171C72.1974 19.2667 72.9322 20.2245 74.2224 20.2245C75.39 20.2245 76.3589 19.5191 77.2244 18.0209C77.7153 19.3266 78.8134 20.2245 80.341 20.2245C82.1432 20.2245 83.4334 19.1324 84.257 17.6165V17.7507C84.257 19.3557 85.058 20.2261 86.3708 20.2261C87.5303 20.2261 88.5153 19.5514 89.3566 18.4545C89.9961 19.5514 91.1427 20.2261 92.6913 20.2261C96.252 20.2261 98.6775 16.6813 98.6775 13.2919C98.6758 10.9055 97.229 9.18895 94.7583 9.18895ZM72.5737 13.7158C71.9277 16.5017 70.5487 18.0857 68.9904 18.0857C67.944 18.0857 67.3658 17.2832 67.3658 16.0795C67.3658 13.7158 69.0792 11.1741 71.3706 11.1741C72.0602 11.1741 72.5947 11.3747 73.0614 11.6643L72.5737 13.7158ZM84.9675 12.5347C84.2554 15.8125 82.6309 18.0857 80.8513 18.0857C79.8727 18.0857 79.293 17.3269 79.293 16.0795C79.293 13.6947 80.9401 11.2194 83.1428 11.2194C83.9889 11.2194 84.6333 11.509 85.1016 11.8876L84.9675 12.5347ZM92.9561 18.0857C91.6659 18.0857 91.1313 17.1489 91.1313 15.9679C91.1313 13.8048 92.6218 11.331 94.4918 11.331C95.7821 11.331 96.3166 12.2678 96.3166 13.4488C96.3166 15.6329 94.8261 18.0857 92.9561 18.0857Z" fill="white"/>
<path d="M45.3358 9.18896C41.7751 9.18896 39.3496 12.7337 39.3496 16.1005C39.3496 18.5079 40.7965 20.2245 43.2656 20.2245C46.8263 20.2245 49.2518 16.6797 49.2518 13.2903C49.2518 10.9055 47.8049 9.18896 45.3358 9.18896ZM43.5336 18.0857C42.2434 18.0857 41.7089 17.1489 41.7089 15.9679C41.7089 13.8048 43.1994 11.331 45.0694 11.331C46.3596 11.331 46.8941 12.2678 46.8941 13.4488C46.8925 15.633 45.402 18.0857 43.5336 18.0857Z" fill="white"/>
<path d="M11.3585 5.37723C13.6264 5.37723 15.465 4.30592 15.465 2.98439C15.465 1.66286 13.6264 0.591553 11.3585 0.591553C9.09051 0.591553 7.25195 1.66286 7.25195 2.98439C7.25195 4.30592 9.09051 5.37723 11.3585 5.37723Z" fill="white"/>
<path d="M11.3585 23.4068C13.6264 23.4068 15.465 22.3355 15.465 21.014C15.465 19.6925 13.6264 18.6212 11.3585 18.6212C9.09051 18.6212 7.25195 19.6925 7.25195 21.014C7.25195 22.3355 9.09051 23.4068 11.3585 23.4068Z" fill="white"/>
<path d="M5.63602 8.68948C6.77 6.72172 6.76264 4.59052 5.61958 3.92931C4.47652 3.26809 2.6306 4.32726 1.49662 6.29502C0.362635 8.26279 0.369995 10.394 1.51306 11.0552C2.65612 11.7164 4.50203 10.6572 5.63602 8.68948Z" fill="white"/>
<path d="M21.2192 17.7032C22.3531 15.7354 22.3464 13.6046 21.2041 12.9438C20.0618 12.2831 18.2165 13.3426 17.0826 15.3103C15.9486 17.2781 15.9553 19.4089 17.0976 20.0697C18.2399 20.7305 20.0852 19.6709 21.2192 17.7032Z" fill="white"/>
<path d="M5.61958 20.0692C6.76264 19.408 6.77 17.2768 5.63602 15.309C4.50203 13.3412 2.65612 12.2821 1.51306 12.9433C0.369995 13.6045 0.362635 15.7357 1.49662 17.7034C2.6306 19.6712 4.47652 20.7304 5.61958 20.0692Z" fill="white"/>
<path d="M21.2041 11.0558C22.3464 10.395 22.3531 8.26415 21.2192 6.29639C20.0852 4.32863 18.2399 3.2691 17.0976 3.92986C15.9553 4.59063 15.9486 6.72147 17.0826 8.68923C18.2165 10.657 20.0618 11.7165 21.2041 11.0558Z" fill="white"/>
</g>
<defs>
<clipPath id="clip0_468_7801">
<rect width="106.479" height="22.8169" fill="white" transform="translate(0.652344 0.591553)"/>
</clipPath>
</defs>
</svg>
