<svg width="23" height="22" viewBox="0 0 23 22" fill="none" xmlns="http://www.w3.org/2000/svg">
<path d="M20.3801 0.275635C19.5707 0.275635 18.8193 0.687499 18.3953 1.36457L13.8275 8.021C13.6787 8.24037 13.7391 8.53613 13.9626 8.68218C14.1437 8.80073 14.3834 8.78606 14.5484 8.64674L19.0447 4.81897C19.1194 4.75297 19.2345 4.7597 19.3018 4.83302C19.3323 4.86663 19.3485 4.91002 19.3485 4.95463V16.939C19.3485 17.038 19.2669 17.1174 19.1661 17.1174C19.1119 17.1174 19.0608 17.0942 19.0266 17.0533L5.43514 1.0847C4.99249 0.572005 4.34252 0.276246 3.65831 0.275635H3.18328C1.89766 0.275635 0.855469 1.29857 0.855469 2.56044V19.4395C0.855469 20.7014 1.89766 21.7243 3.18328 21.7243C3.99263 21.7243 4.74408 21.3125 5.16805 20.6354L9.73589 13.979C9.88469 13.7596 9.8243 13.4638 9.60079 13.3178C9.41963 13.1992 9.17993 13.2139 9.01495 13.3532L4.51871 17.181C4.444 17.247 4.32882 17.2403 4.26158 17.1669C4.23108 17.1333 4.21489 17.0899 4.21551 17.0453V5.0579C4.21551 4.9589 4.29707 4.87947 4.39793 4.87947C4.45147 4.87947 4.50314 4.90269 4.53738 4.94363L18.127 20.9153C18.5696 21.428 19.2196 21.7237 19.9038 21.7243H20.3788C21.6645 21.7249 22.7073 20.7026 22.7085 19.4407V2.56044C22.7085 1.29857 21.6663 0.275635 20.3807 0.275635H20.3801Z" fill="white"/>
</svg>
