<svg width="106" height="22" viewBox="0 0 106 22" fill="none" xmlns="http://www.w3.org/2000/svg">
<g clip-path="url(#clip0_468_7846)">
<mask id="mask0_468_7846" style="mask-type:luminance" maskUnits="userSpaceOnUse" x="0" y="0" width="106" height="22">
<path d="M105.714 0.436646H0.0800781V21.5634H105.714V0.436646Z" fill="white"/>
</mask>
<g mask="url(#mask0_468_7846)">
<path fill-rule="evenodd" clip-rule="evenodd" d="M36.7497 10.8063L26.3492 0.436646V8.02907L16.0234 15.6303L26.3492 15.6391V21.1717L36.7497 10.8063Z" fill="white"/>
<path fill-rule="evenodd" clip-rule="evenodd" d="M0.0800781 10.8019L10.4806 21.1673V13.6365L20.8063 5.97362L10.4806 5.96482V0.436646L0.0800781 10.8019Z" fill="white"/>
<path d="M52.2454 15.9821H44.2832V13.6978L48.8386 8.61857H44.3976V6.36945H52.1617V8.53934L47.4698 13.7154H52.241V15.9821H52.2454Z" fill="white"/>
<path d="M63.1079 6.36969L59.2566 10.4146L63.1871 15.9823H60.0005L57.4565 12.3072L56.3825 13.4383V15.9779H53.7812V1.83624H56.3825V9.94364L59.7055 6.36969H63.1079Z" fill="white"/>
<path d="M74.4244 5.43169L71.9992 6.17553C71.9067 5.68257 71.6603 5.22922 71.2554 4.8287C70.8504 4.42377 70.2562 4.2213 69.4772 4.2213C68.839 4.2213 68.3152 4.39736 67.9103 4.74947C67.5054 5.08838 67.3029 5.49771 67.3029 5.98186C67.3029 6.82694 67.8047 7.3507 68.8082 7.54437L70.7448 7.91408C71.9727 8.14736 72.9234 8.63591 73.6013 9.37977C74.2791 10.1236 74.6181 10.995 74.6181 11.9986C74.6181 13.1429 74.1603 14.1465 73.2492 15.0091C72.3513 15.8542 71.1365 16.2811 69.6092 16.2811C68.7333 16.2811 67.9455 16.1491 67.2413 15.8894C66.5371 15.6297 65.9693 15.2821 65.538 14.8551C65.1065 14.4106 64.7677 13.9484 64.5212 13.4686C64.2879 12.9757 64.1427 12.4651 64.0898 11.9457L66.5943 11.2812C66.6603 12.025 66.9463 12.6412 67.4569 13.1386C67.9763 13.6315 68.7026 13.8824 69.6268 13.8824C70.331 13.8824 70.8769 13.7239 71.2685 13.4114C71.6735 13.0989 71.876 12.6896 71.876 12.1791C71.876 11.7741 71.7263 11.4308 71.427 11.1447C71.1409 10.8455 70.7272 10.643 70.1946 10.5373L68.258 10.1456C67.1356 9.91233 66.2509 9.45016 65.5996 8.75915C64.9481 8.06813 64.6224 7.20985 64.6224 6.17992C64.6224 4.95634 65.0934 3.92641 66.0309 3.09454C66.9816 2.26268 68.126 1.84454 69.4552 1.84454C70.2518 1.84454 70.9604 1.95457 71.5854 2.17464C72.2105 2.39472 72.7122 2.69401 73.0908 3.07253C73.4693 3.43785 73.7641 3.81637 73.971 4.20369C74.1779 4.59542 74.3319 5.00475 74.42 5.43609L74.4244 5.43169Z" fill="white"/>
<path d="M79.0017 19.7717H76.2421L78.5088 14.7717L74.4199 6.36945H77.3336L79.8952 11.9989L82.2632 6.36945H85.0401L78.9973 19.7717H79.0017Z" fill="white"/>
<path d="M88.6343 10.4496V15.9778H86.0332V6.36948H88.5549V7.56226C88.8279 7.0913 89.22 6.73479 89.7304 6.48831C90.2408 6.24184 90.7732 6.11859 91.3326 6.11859C92.4684 6.11859 93.3262 6.47511 93.916 7.19254C94.5143 7.89676 94.8143 8.80785 94.8143 9.93017V15.9865H92.2124V10.3792C92.2124 9.80696 92.0628 9.34479 91.7636 8.99273C91.478 8.6406 91.0335 8.46454 90.4343 8.46454C89.8884 8.46454 89.449 8.6538 89.1228 9.03228C88.7974 9.41088 88.6343 9.88623 88.6343 10.4583V10.4496Z" fill="white"/>
<path d="M101.193 8.47771C100.502 8.47771 99.9215 8.71979 99.4508 9.19957C98.9792 9.67932 98.746 10.3395 98.746 11.1714C98.746 12.0033 98.9792 12.6678 99.4508 13.1652C99.9341 13.6494 100.52 13.887 101.211 13.887C101.823 13.887 102.311 13.7286 102.676 13.416C103.042 13.0904 103.288 12.7075 103.42 12.2629L105.709 13.0244C105.476 13.9091 104.966 14.6705 104.182 15.3087C103.398 15.9469 102.409 16.2682 101.207 16.2682C99.7719 16.2682 98.566 15.7884 97.5882 14.8201C96.6249 13.8431 96.1406 12.6238 96.1406 11.167C96.1406 9.71008 96.6156 8.47771 97.5663 7.5138C98.5305 6.54989 99.7187 6.06573 101.127 6.06573C102.355 6.06573 103.359 6.38704 104.138 7.02524C104.922 7.65024 105.423 8.41168 105.643 9.3096L103.314 10.0931C103.003 9.01027 102.289 8.47331 101.185 8.47331L101.193 8.47771Z" fill="white"/>
</g>
</g>
<defs>
<clipPath id="clip0_468_7846">
<rect width="105.634" height="21.1268" fill="white" transform="translate(0.0800781 0.436646)"/>
</clipPath>
</defs>
</svg>
